<svg width="449" height="58" viewBox="0 0 449 58" fill="none" xmlns="http://www.w3.org/2000/svg">
<path d="M139.545 11.1628C142.415 11.1628 144.971 11.7233 147.213 12.8443C149.499 13.9653 151.293 15.6916 152.593 18.0233C153.894 20.3101 154.544 23.2695 154.544 26.9015V47.4829H146.137V27.9777C146.137 24.7941 145.374 22.4176 143.85 20.8482C142.37 19.2788 140.285 18.4941 137.595 18.4941C135.622 18.4941 133.873 18.8976 132.348 19.7048C130.824 20.5119 129.636 21.7225 128.784 23.3368C127.977 24.9061 127.573 26.9015 127.573 29.3228V47.4829H119.166V11.5664H127.169V21.2517L125.757 18.2923C127.012 16.0055 128.828 14.2568 131.205 13.0461C133.626 11.7906 136.406 11.1628 139.545 11.1628Z" fill="#4B5563"/>
<path d="M180.41 47.9537C177.361 47.9537 174.67 47.3932 172.339 46.2722C170.007 45.1064 168.191 43.3576 166.891 41.026C165.59 38.6495 164.94 35.6676 164.94 32.0805V11.5664H173.348V30.9371C173.348 34.1655 174.065 36.5869 175.5 38.2011C176.98 39.7705 179.065 40.5552 181.755 40.5552C183.728 40.5552 185.432 40.1516 186.867 39.3445C188.346 38.5374 189.49 37.3267 190.297 35.7125C191.149 34.0983 191.575 32.1029 191.575 29.7264V11.5664H199.982V47.4829H191.978V37.7975L193.391 40.7569C192.18 43.0886 190.409 44.8822 188.077 46.1377C185.746 47.3483 183.19 47.9537 180.41 47.9537Z" fill="#4B5563"/>
<path d="M227.469 47.9537C223.702 47.9537 220.339 47.169 217.38 45.5996C214.465 43.9854 212.179 41.7882 210.519 39.0082C208.86 36.2281 208.031 33.067 208.031 29.5246C208.031 25.9375 208.86 22.7763 210.519 20.0411C212.179 17.261 214.465 15.0863 217.38 13.5169C220.339 11.9475 223.702 11.1628 227.469 11.1628C230.966 11.1628 234.038 11.8803 236.683 13.3151C239.374 14.7052 241.414 16.7678 242.804 19.503L236.347 23.2695C235.271 21.5656 233.948 20.3101 232.379 19.503C230.854 18.6959 229.195 18.2923 227.402 18.2923C225.339 18.2923 223.478 18.7407 221.819 19.6375C220.16 20.5343 218.86 21.8346 217.918 23.5385C216.976 25.1976 216.506 27.193 216.506 29.5246C216.506 31.8563 216.976 33.8741 217.918 35.578C218.86 37.237 220.16 38.515 221.819 39.4117C223.478 40.3085 225.339 40.7569 227.402 40.7569C229.195 40.7569 230.854 40.3534 232.379 39.5463C233.948 38.7392 235.271 37.4836 236.347 35.7797L242.804 39.5463C241.414 42.2366 239.374 44.3217 236.683 45.8014C234.038 47.2362 230.966 47.9537 227.469 47.9537Z" fill="#4B5563"/>
<path d="M249.743 47.4829V1.36255H258.151V47.4829H249.743Z" fill="#4B5563"/>
<path d="M286.067 47.9537C282.077 47.9537 278.579 47.169 275.575 45.5996C272.616 43.9854 270.306 41.7882 268.647 39.0082C267.033 36.2281 266.226 33.067 266.226 29.5246C266.226 25.9375 267.011 22.7763 268.58 20.0411C270.194 17.261 272.391 15.0863 275.171 13.5169C277.996 11.9475 281.202 11.1628 284.79 11.1628C288.287 11.1628 291.403 11.9251 294.139 13.4496C296.874 14.9742 299.026 17.1265 300.596 19.9065C302.165 22.6866 302.95 25.9599 302.95 29.7264C302.95 30.0851 302.927 30.4887 302.882 30.9371C302.882 31.3855 302.86 31.8114 302.815 32.215H272.885V26.6325H298.376L295.08 28.3812C295.125 26.3186 294.699 24.5026 293.802 22.9332C292.906 21.3638 291.672 20.1307 290.103 19.2339C288.579 18.3372 286.807 17.8888 284.79 17.8888C282.727 17.8888 280.911 18.3372 279.342 19.2339C277.817 20.1307 276.606 21.3862 275.71 23.0005C274.858 24.5699 274.432 26.4307 274.432 28.583V29.9282C274.432 32.0805 274.925 33.9862 275.911 35.6452C276.898 37.3043 278.288 38.5822 280.081 39.479C281.875 40.3758 283.938 40.8242 286.269 40.8242C288.287 40.8242 290.103 40.5103 291.717 39.8826C293.331 39.2548 294.766 38.2683 296.022 36.9232L300.528 42.1021C298.914 43.9854 296.874 45.4427 294.408 46.474C291.986 47.4604 289.206 47.9537 286.067 47.9537Z" fill="#4B5563"/>
<path d="M326.226 47.9537C323.177 47.9537 320.487 47.3932 318.155 46.2722C315.823 45.1064 314.007 43.3576 312.707 41.026C311.407 38.6495 310.756 35.6676 310.756 32.0805V11.5664H319.164V30.9371C319.164 34.1655 319.881 36.5869 321.316 38.2011C322.796 39.7705 324.881 40.5552 327.571 40.5552C329.544 40.5552 331.248 40.1516 332.683 39.3445C334.163 38.5374 335.306 37.3267 336.113 35.7125C336.965 34.0983 337.391 32.1029 337.391 29.7264V11.5664H345.799V47.4829H337.795V37.7975L339.207 40.7569C337.996 43.0886 336.225 44.8822 333.894 46.1377C331.562 47.3483 329.006 47.9537 326.226 47.9537Z" fill="#4B5563"/>
<path d="M367.904 47.9537C364.9 47.9537 362.008 47.5725 359.228 46.8103C356.493 46.0032 354.318 45.0391 352.704 43.9181L355.932 37.5285C357.546 38.5598 359.474 39.4117 361.716 40.0843C363.958 40.7569 366.2 41.0932 368.442 41.0932C371.088 41.0932 372.993 40.7345 374.159 40.0171C375.37 39.2996 375.975 38.3356 375.975 37.1249C375.975 36.1385 375.572 35.3986 374.765 34.9054C373.958 34.3673 372.904 33.9637 371.604 33.6947C370.303 33.4257 368.846 33.179 367.232 32.9549C365.662 32.7307 364.07 32.4392 362.456 32.0805C360.887 31.6769 359.452 31.1164 358.152 30.399C356.851 29.6367 355.798 28.6278 354.99 27.3723C354.183 26.1168 353.78 24.4578 353.78 22.3951C353.78 20.1083 354.43 18.1354 355.73 16.4763C357.031 14.7724 358.847 13.4721 361.178 12.5753C363.555 11.6336 366.357 11.1628 369.586 11.1628C372.007 11.1628 374.451 11.4319 376.917 11.9699C379.383 12.508 381.423 13.2703 383.038 14.2568L379.809 20.6464C378.105 19.6151 376.379 18.9201 374.63 18.5614C372.926 18.1578 371.222 17.956 369.518 17.956C366.963 17.956 365.057 18.3372 363.801 19.0994C362.591 19.8617 361.985 20.8258 361.985 21.9916C361.985 23.0677 362.389 23.8748 363.196 24.4129C364.003 24.951 365.057 25.377 366.357 25.6908C367.658 26.0047 369.092 26.2738 370.662 26.498C372.276 26.6773 373.868 26.9688 375.437 27.3723C377.007 27.7759 378.442 28.3364 379.742 29.0538C381.087 29.7264 382.163 30.6905 382.97 31.946C383.777 33.2015 384.181 34.8381 384.181 36.8559C384.181 39.0979 383.508 41.0484 382.163 42.7075C380.863 44.3665 379.002 45.6669 376.581 46.6085C374.159 47.5053 371.267 47.9537 367.904 47.9537Z" fill="#4B5563"/>
<mask id="mask0_10380_47859" style="mask-type:alpha" maskUnits="userSpaceOnUse" x="24" y="0" width="83" height="57">
<path d="M49.2923 10.8758L76.1379 56.7748L76.1404 56.7733L78.8941 56.7741C86.8988 56.7766 94.8553 53.3319 100.364 46.6627C110.169 34.791 108.516 17.2001 96.6713 7.3724C91.4683 3.05546 85.157 0.95308 78.8911 0.961957L76.1379 0.965858L76.3035 10.6945H78.8994C82.983 10.688 87.0868 12.0547 90.4792 14.8693C98.193 21.2695 99.2697 32.7253 92.8839 40.4566C89.8689 44.1068 85.7321 46.2748 81.3864 46.872L54.5348 0.962749L51.8687 0.961914C43.864 0.959412 35.9075 4.40411 30.399 11.0733C20.5935 22.945 22.2467 40.5359 34.0916 50.3636C39.2946 54.6806 45.6059 56.783 51.8718 56.7741L54.625 56.7702V47.0372L51.8635 47.0416C47.7798 47.0481 43.676 45.6814 40.2837 42.8667C32.5699 36.4666 31.4932 25.0107 37.8789 17.2794C40.8744 13.6528 44.9774 11.4893 49.2923 10.8758Z" fill="url(#paint0_linear_10380_47859)"/>
</mask>
<g mask="url(#mask0_10380_47859)">
<rect x="16.686" y="-1.72607" width="92.8832" height="60.0306" fill="url(#paint1_linear_10380_47859)"/>
<path d="M20.3019 -8.4458L16.0078 6.14179L24.246 4.34565L22.2798 -8.4458H20.3019Z" fill="url(#paint2_linear_10380_47859)"/>
<path d="M22.2798 -8.4458L24.246 4.34565L29.6586 -0.491596L24.4772 -8.4458H22.2798Z" fill="url(#paint3_linear_10380_47859)"/>
<path d="M40.92 -8.4458L29.6587 -0.491596L50.2834 3.2297L47.5456 -8.4458H40.92Z" fill="#70E8F8"/>
<path d="M47.5454 -8.4458L50.2832 3.2297L57.3527 -2.28072L50.8432 -8.4458H47.5454Z" fill="#A9F4FB"/>
<path d="M62.1042 -8.4458L57.3525 -2.28072L68.1518 2.98525L66.4346 -8.4458H62.1042Z" fill="url(#paint4_linear_10380_47859)"/>
<path d="M66.4351 -8.4458L68.1522 2.98525L81.7154 -2.62059L72.8694 -8.4458H66.4351Z" fill="url(#paint5_linear_10380_47859)"/>
<path d="M106.301 -6.04248L105.05 0.174869L107.466 6.32218L106.301 -6.04248Z" fill="url(#paint6_linear_10380_47859)"/>
<path d="M121.341 -2.29983L106.301 -6.04248L106.301 -6.04233L107.466 6.32233L121.341 1.21167V-2.29983Z" fill="url(#paint7_linear_10380_47859)"/>
<path d="M9.34375 17.7665L28.6027 10.7274L16.0079 6.14175V6.1416L9.34375 16.6768V17.7665Z" fill="url(#paint8_linear_10380_47859)"/>
<path d="M16.0078 6.14199L28.6024 10.7278L24.246 4.3457L16.0078 6.14199Z" fill="url(#paint9_linear_10380_47859)"/>
<path d="M29.6584 -0.491943L28.6021 10.7274L35.2731 15.446L29.6584 -0.491943Z" fill="#3AD5EC"/>
<path d="M29.6589 -0.491943L28.6025 10.7274L24.2461 4.34545L29.6589 -0.491943Z" fill="url(#paint10_linear_10380_47859)"/>
<path d="M29.6587 -0.491943L50.2401 17.6412L35.2733 15.446L29.6587 -0.491943Z" fill="#28B7D3"/>
<path d="M29.6587 -0.491943L50.2401 17.6412L50.2832 3.22951L29.6587 -0.491943Z" fill="#3AD5EC"/>
<path d="M57.353 -2.28076L50.2402 17.6412L60.5683 8.55058L57.3527 -2.28076H57.353Z" fill="#70E8F8"/>
<path d="M57.353 -2.28076L50.2402 17.6412L50.2834 3.22951L57.353 -2.28076Z" fill="#28B7D3"/>
<path d="M57.3527 -2.28076L70.6378 11.8672L60.5682 8.55058L57.3525 -2.28076H57.3527Z" fill="url(#paint11_linear_10380_47859)"/>
<path d="M57.353 -2.28076L70.6382 11.8672L68.1521 2.98521L57.353 -2.28076Z" fill="url(#paint12_linear_10380_47859)"/>
<path d="M81.7155 -2.62046L70.6382 11.8674L80.6839 10.4056L81.7153 -2.62061L81.7155 -2.62046Z" fill="#443FC7"/>
<path d="M81.7152 -2.62061L70.6379 11.8672L68.1519 2.98524L81.7152 -2.62061Z" fill="#656CEE"/>
<path d="M81.7152 -2.62046L91.0607 14.1459L80.6836 10.4056L81.715 -2.62061L81.7152 -2.62046Z" fill="#514EE3"/>
<path d="M81.7153 -2.62061L91.0608 14.1457L90.7452 0.38436L81.7153 -2.62061Z" fill="#656CEE"/>
<path d="M105.05 0.175049L91.0605 14.1458L104.246 16.0779L105.05 0.175049Z" fill="#656CEE"/>
<path d="M105.05 0.175049L91.0608 14.1458L90.7451 0.384409L105.05 0.175049Z" fill="#443FC7"/>
<path d="M105.05 0.175049L106.213 12.2079L104.247 16.0779L105.05 0.175049Z" fill="url(#paint13_linear_10380_47859)"/>
<path d="M105.05 0.175049L106.214 12.2079L107.466 6.32236L105.05 0.175049Z" fill="url(#paint14_linear_10380_47859)"/>
<path d="M121.341 2.69434L106.213 12.208L121.341 12.0755V2.69434Z" fill="url(#paint15_linear_10380_47859)"/>
<path d="M121.341 1.21167L107.466 6.32234L106.213 12.2079L121.341 2.69422V1.21167Z" fill="url(#paint16_linear_10380_47859)"/>
<path d="M28.6023 10.7273L16.251 20.8074L25.9092 21.8434L28.6022 10.7276L28.6023 10.7273Z" fill="#70E8F8"/>
<path d="M9.34375 17.7666V18.406L16.2513 20.8074L28.6027 10.7273L9.34375 17.7666Z" fill="url(#paint17_linear_10380_47859)"/>
<path d="M28.6023 10.7273L39.1653 23.3646L25.9092 21.8433L28.6022 10.7274L28.6023 10.7273Z" fill="#3AD5EC"/>
<path d="M28.6025 10.7273L39.1655 23.3646L35.2734 15.4461L28.6025 10.7273Z" fill="#70E8F8"/>
<path d="M50.2401 17.6414L39.1655 23.3646L48.6235 28.3985L50.2401 17.6411V17.6414Z" fill="url(#paint18_linear_10380_47859)"/>
<path d="M50.2402 17.6413L39.1656 23.3646L35.2734 15.446L50.2402 17.6413Z" fill="#2093B0"/>
<path d="M50.2402 17.6413L57.9534 21.6711L48.6235 28.3985L50.2402 17.6413Z" fill="#28A6E7"/>
<path d="M50.2402 17.6415L57.9534 21.6714L60.5683 8.55078L50.2402 17.6415Z" fill="#3AD5EC"/>
<path d="M70.6378 11.8672L57.9531 21.6713L66.5935 26.3858L70.6378 11.8672Z" fill="#28A6E7"/>
<path d="M70.6378 11.8672L57.9531 21.6714L60.568 8.55078L70.6378 11.8672Z" fill="#28B7D3"/>
<path d="M70.6379 11.8672L79.1325 20.2503L66.5938 26.3858L70.6379 11.8672Z" fill="#45BFF7"/>
<path d="M70.6382 11.8671L79.1328 20.2501L80.6839 10.4053L70.6382 11.8671Z" fill="url(#paint19_linear_10380_47859)"/>
<path d="M91.0605 14.1459L79.1323 20.2504L89.277 21.1335L91.0605 14.1459Z" fill="#443FC7"/>
<path d="M91.0605 14.1459L79.1323 20.2504L80.6834 10.4055L91.0605 14.1459Z" fill="url(#paint20_linear_10380_47859)"/>
<path d="M91.0608 14.1459L95.298 26.9444L89.2773 21.1335L91.0608 14.1459Z" fill="#8290F6"/>
<path d="M91.0605 14.146L95.2978 26.9445L104.246 16.0782L91.0605 14.146Z" fill="#514EE3"/>
<path d="M106.213 12.208L95.2979 26.9443L106.07 20.1332L106.213 12.208Z" fill="#656CEE"/>
<path d="M106.213 12.208L95.2979 26.9443L104.246 16.078L106.213 12.208Z" fill="#443FC7"/>
<path d="M121.341 20.3842L106.213 12.2079L106.213 12.2078L106.07 20.133L121.341 22.1294V20.3842Z" fill="url(#paint21_linear_10380_47859)"/>
<path d="M121.341 12.0754L106.214 12.208L121.341 20.3843V12.0754Z" fill="url(#paint22_linear_10380_47859)"/>
<path d="M9.34375 39.3496L29.2279 35.2618L16.2515 20.8071L16.2513 20.8073L9.34375 37.5869V39.3496Z" fill="#70E8F8"/>
<path d="M16.251 20.8071L29.2276 35.2618L25.9092 21.8433L16.251 20.8071Z" fill="#2093B0"/>
<path d="M39.1659 23.3647L29.228 35.2619L34.9632 33.7644L39.1659 23.3647Z" fill="#3AD5EC"/>
<path d="M39.1655 23.3646L29.2276 35.2617L25.9092 21.8433L39.1655 23.3646Z" fill="#28B7D3"/>
<path d="M39.1656 23.3647L46.2585 32.2472L34.9629 33.7644L39.1656 23.3647Z" fill="url(#paint23_linear_10380_47859)"/>
<path d="M39.1655 23.3647L46.2584 32.2472L48.6233 28.3988L39.1655 23.3647Z" fill="url(#paint24_linear_10380_47859)"/>
<path d="M57.9536 21.6711L46.2588 32.2471L55.1478 37.5377L57.9536 21.6711Z" fill="#1A86C5"/>
<path d="M57.9536 21.6711L46.2588 32.2471L48.6237 28.3988L57.9536 21.6711Z" fill="#28A6E7"/>
<path d="M57.9534 21.6711L72.9392 34.5918L55.1475 37.5377L57.9534 21.6711Z" fill="#28A6E7"/>
<path d="M57.9536 21.6711L72.9395 34.5918L66.594 26.3858L57.9536 21.6711Z" fill="#45BFF7"/>
<path d="M79.1323 20.2505L72.939 34.5918L77.8898 40.4197L79.1323 20.2505Z" fill="#28A6E7"/>
<path d="M79.1325 20.2505L72.9392 34.5918L66.5938 26.3859L79.1325 20.2505Z" fill="#1A86C5"/>
<path d="M79.1326 20.2505L87.5805 38.0906L77.8901 40.4196L79.1326 20.2505Z" fill="url(#paint25_linear_10380_47859)"/>
<path d="M79.1323 20.2505L87.5802 38.0906L89.2772 21.1335L79.1323 20.2505Z" fill="url(#paint26_linear_10380_47859)"/>
<path d="M95.2981 26.9443L87.5806 38.0906L98.516 31.822L95.2981 26.9443Z" fill="#95C7FC"/>
<path d="M95.2981 26.9444L87.5806 38.0907L89.2775 21.1335L95.2981 26.9444Z" fill="url(#paint27_linear_10380_47859)"/>
<path d="M95.2979 26.9443L114.023 35.579L98.5158 31.822L95.2979 26.9443Z" fill="#4285F4"/>
<path d="M95.2979 26.9443L114.023 35.579L106.07 20.1331L95.2979 26.9443Z" fill="#514EE3"/>
<path d="M121.341 22.1294L106.07 20.1331L114.023 35.579L121.341 27.4296V22.1294Z" fill="url(#paint28_linear_10380_47859)"/>
<path d="M29.2275 35.2619L17.8184 42.2789L19.2137 41.8758L29.2278 35.2617L29.2275 35.2619Z" fill="url(#paint29_linear_10380_47859)"/>
<path d="M9.34375 39.3497V39.7493L17.8187 42.2791L29.2278 35.262L9.34375 39.3497Z" fill="#2093B0"/>
<path d="M29.2278 35.2619L38.1629 47.9513L19.2139 41.8758L29.2279 35.2617L29.2278 35.2619Z" fill="#3AD5EC"/>
<path d="M29.2275 35.2618L38.1627 47.9512L34.9629 33.7642L29.2275 35.2618Z" fill="#28B7D3"/>
<path d="M46.2585 32.2472L38.1626 47.9515L44.8263 43.7858L46.2584 32.2471L46.2585 32.2472Z" fill="#3AD5EC"/>
<path d="M46.2587 32.2473L38.1627 47.9516L34.9629 33.7645L46.2587 32.2473Z" fill="#70E8F8"/>
<path d="M46.2587 32.2472L59.3709 50.2857L44.8267 43.7858L46.2587 32.2471V32.2472Z" fill="url(#paint30_linear_10380_47859)"/>
<path d="M46.2588 32.2473L59.371 50.2858L55.1478 37.5378L46.2588 32.2473Z" fill="url(#paint31_linear_10380_47859)"/>
<path d="M72.9392 34.5918L59.3706 50.2856L64.2132 46.4015L72.939 34.5918H72.9392Z" fill="#166BA0"/>
<path d="M72.9392 34.5918L59.3707 50.2856L55.1475 37.5376L72.9392 34.5918Z" fill="#1A86C5"/>
<path d="M72.9393 34.5919L74.9097 49.4736L64.2134 46.4016L72.9392 34.5918L72.9393 34.5919Z" fill="#45BFF7"/>
<path d="M72.9395 34.5918L74.9099 49.4734L77.8902 40.4195L72.9395 34.5918Z" fill="#28A6E7"/>
<path d="M87.5802 38.0906L74.9097 49.4735L94.3647 46.4172L87.5803 38.0907L87.5802 38.0906Z" fill="#166BA0"/>
<path d="M87.5802 38.0906L74.9097 49.4735L77.89 40.4197L87.5802 38.0906Z" fill="#1A86C5"/>
<path d="M87.5801 38.0906L94.8968 48.3933L94.3647 46.4172L87.5804 38.0907L87.5801 38.0906Z" fill="url(#paint32_linear_10380_47859)"/>
<path d="M87.5801 38.0904L94.8968 48.3932L98.5157 31.822L87.5801 38.0904Z" fill="#4285F4"/>
<path d="M114.023 35.5789L94.897 48.3932L113.544 42.1964L114.023 35.5789Z" fill="#2144AC"/>
<path d="M114.023 35.5789L94.897 48.3932L98.5158 31.822L114.023 35.5789Z" fill="#2C69E8"/>
<path d="M38.1627 47.9517L24.0015 59.13L39.9642 58.5548L38.1627 47.9517Z" fill="#70E8F8"/>
<path d="M38.1629 47.9516L24.0017 59.13L19.2139 41.876L38.1629 47.9516Z" fill="#28B7D3"/>
<path d="M38.1626 47.9517L45.3403 53.6803L39.9641 58.5547L38.1626 47.9517Z" fill="#28B7D3"/>
<path d="M38.1626 47.9516L45.3403 53.6802L44.8261 43.7859L38.1626 47.9516Z" fill="#70E8F8"/>
<path d="M59.3708 50.2856L45.3403 53.6801L52.9482 60.1802L59.3706 50.2856H59.3708Z" fill="#28B7D3"/>
<path d="M59.3708 50.2858L45.3403 53.6802L44.8262 43.7859L59.3708 50.2858Z" fill="#3AD5EC"/>
<path d="M59.3708 50.2856L66.2022 61.7787L52.9482 60.1804L59.3706 50.2858L59.3708 50.2856Z" fill="url(#paint33_linear_10380_47859)"/>
<path d="M59.3706 50.2856L66.202 61.7786L64.2131 46.4014L59.3706 50.2856Z" fill="url(#paint34_linear_10380_47859)"/>
<path d="M74.9094 49.4734L66.2021 61.7785L80.3546 56.7832L74.9094 49.4734Z" fill="#45BFF7"/>
<path d="M74.9096 49.4734L66.2023 61.7785L64.2134 46.4014L74.9096 49.4734Z" fill="#1A86C5"/>
<path d="M74.9097 49.4734L86.9312 53.9655L80.3548 56.7832L74.9097 49.4734Z" fill="#28A6E7"/>
<path d="M74.9097 49.4736L86.9312 53.9657L94.3648 46.4172L74.9097 49.4736Z" fill="#45BFF7"/>
<path d="M94.897 48.3931L86.9312 53.9656L101.645 56.5899L94.897 48.3931Z" fill="#4285F4"/>
<path d="M94.897 48.3932L86.9312 53.9657L94.3648 46.4172L94.897 48.3932Z" fill="#64A7F8"/>
<path d="M94.8971 48.3931L106.148 56.459L101.645 56.5898L94.8971 48.3931Z" fill="#3270E9"/>
<path d="M94.897 48.393L106.148 56.4589L113.544 42.1963L94.897 48.393Z" fill="#4285F4"/>
<path d="M116.884 42.9729L106.148 56.4592L121.037 62.2247L116.884 42.9729Z" fill="url(#paint35_linear_10380_47859)"/>
<path d="M116.884 42.9729L106.148 56.4592L113.544 42.1965L116.884 42.9729Z" fill="url(#paint36_linear_10380_47859)"/>
<path d="M46.5493 66.2191L45.3403 53.6802L38.7622 64.2275L42.3691 66.2191H46.5493Z" fill="#3AD5EC"/>
<path d="M45.3403 53.6802L38.7622 64.2275L39.9642 58.5546L45.3403 53.6802Z" fill="#25AAC9"/>
<path d="M55.4898 66.2191L45.3403 53.6802L46.5493 66.2191H55.4898Z" fill="#70E8F8"/>
<path d="M56.7178 66.2191L52.9482 60.1804L45.3403 53.6802L55.4898 66.2191H56.7178Z" fill="url(#paint37_linear_10380_47859)"/>
<path d="M87.0799 66.2191L94.2869 64.5197L86.9311 53.9658L80.0532 66.2191H87.0799Z" fill="#82D5FB"/>
<path d="M80.0531 66.219L86.931 53.9656L80.3546 56.7833L79.2124 66.219H80.0531Z" fill="#45BFF7"/>
<path d="M86.9312 53.9656L100.545 65.7989L94.287 64.5198L86.9312 53.9656Z" fill="#28A6E7"/>
<path d="M86.9312 53.9656L100.545 65.7989L101.645 56.5901L86.9312 53.9656Z" fill="#28A6E7"/>
<path d="M106.148 56.459L100.545 65.799L109.548 63.5923L106.148 56.459Z" fill="url(#paint38_linear_10380_47859)"/>
<path d="M106.148 56.459L100.545 65.799L101.645 56.5901L106.148 56.459Z" fill="url(#paint39_linear_10380_47859)"/>
<path d="M113.271 66.2191H115.902L106.148 56.4592L109.548 63.5923L113.271 66.2191Z" fill="url(#paint40_linear_10380_47859)"/>
<path d="M121.341 64.9396L121.037 62.2245L106.147 56.459L115.902 66.219H121.341V64.9396Z" fill="url(#paint41_linear_10380_47859)"/>
</g>
<path fill-rule="evenodd" clip-rule="evenodd" d="M49.1791 46.9015L59.6392 28.6874L65.695 39.0099L54.5468 56.8111L49.1791 46.9015Z" fill="url(#paint42_linear_10380_47859)"/>
<path fill-rule="evenodd" clip-rule="evenodd" d="M82.074 10.9783L71.2649 29.5835L65.2124 19.2591L76.1558 0.931083L82.074 10.9783Z" fill="url(#paint43_linear_10380_47859)"/>
<defs>
<linearGradient id="paint0_linear_10380_47859" x1="118.688" y1="-4.29001" x2="37.1094" y2="45.0729" gradientUnits="userSpaceOnUse">
<stop stop-color="#6366F1"/>
<stop offset="1" stop-color="#22D3EE"/>
</linearGradient>
<linearGradient id="paint1_linear_10380_47859" x1="111.87" y1="-2.37715" x2="33.3509" y2="48.7219" gradientUnits="userSpaceOnUse">
<stop offset="0.15625" stop-color="#6366F1"/>
<stop offset="1" stop-color="#06B6D4"/>
</linearGradient>
<linearGradient id="paint2_linear_10380_47859" x1="25.4334" y1="-9.81847" x2="14.8987" y2="-7.39057" gradientUnits="userSpaceOnUse">
<stop stop-color="#6366F1"/>
<stop offset="1" stop-color="#22D3EE"/>
</linearGradient>
<linearGradient id="paint3_linear_10380_47859" x1="30.7221" y1="-9.64946" x2="21.3069" y2="-7.43303" gradientUnits="userSpaceOnUse">
<stop stop-color="#6366F1"/>
<stop offset="1" stop-color="#22D3EE"/>
</linearGradient>
<linearGradient id="paint4_linear_10380_47859" x1="69.7083" y1="-9.52145" x2="57.047" y2="-4.6401" gradientUnits="userSpaceOnUse">
<stop stop-color="#6366F1"/>
<stop offset="1" stop-color="#22D3EE"/>
</linearGradient>
<linearGradient id="paint5_linear_10380_47859" x1="83.9177" y1="-9.52145" x2="68.0591" y2="-0.870435" gradientUnits="userSpaceOnUse">
<stop stop-color="#6366F1"/>
<stop offset="1" stop-color="#22D3EE"/>
</linearGradient>
<linearGradient id="paint6_linear_10380_47859" x1="107.815" y1="-7.20598" x2="104.581" y2="-6.94815" gradientUnits="userSpaceOnUse">
<stop stop-color="#6366F1"/>
<stop offset="1" stop-color="#22D3EE"/>
</linearGradient>
<linearGradient id="paint7_linear_10380_47859" x1="123.509" y1="-7.20599" x2="107.258" y2="0.860616" gradientUnits="userSpaceOnUse">
<stop stop-color="#6366F1"/>
<stop offset="1" stop-color="#22D3EE"/>
</linearGradient>
<linearGradient id="paint8_linear_10380_47859" x1="31.3785" y1="5.04771" x2="13.5787" y2="17.0818" gradientUnits="userSpaceOnUse">
<stop stop-color="#6366F1"/>
<stop offset="1" stop-color="#22D3EE"/>
</linearGradient>
<linearGradient id="paint9_linear_10380_47859" x1="30.4177" y1="3.74516" x2="20.1294" y2="12.0307" gradientUnits="userSpaceOnUse">
<stop stop-color="#6366F1"/>
<stop offset="1" stop-color="#22D3EE"/>
</linearGradient>
<linearGradient id="paint10_linear_10380_47859" x1="30.439" y1="-1.54767" x2="23.4217" y2="-0.166081" gradientUnits="userSpaceOnUse">
<stop stop-color="#6366F1"/>
<stop offset="1" stop-color="#22D3EE"/>
</linearGradient>
<linearGradient id="paint11_linear_10380_47859" x1="72.5526" y1="-3.61207" x2="56.9524" y2="2.36605" gradientUnits="userSpaceOnUse">
<stop stop-color="#6366F1"/>
<stop offset="1" stop-color="#22D3EE"/>
</linearGradient>
<linearGradient id="paint12_linear_10380_47859" x1="72.5529" y1="-3.61207" x2="56.9528" y2="2.36593" gradientUnits="userSpaceOnUse">
<stop stop-color="#6366F1"/>
<stop offset="1" stop-color="#22D3EE"/>
</linearGradient>
<linearGradient id="paint13_linear_10380_47859" x1="106.497" y1="-1.32139" x2="103.855" y2="-1.18805" gradientUnits="userSpaceOnUse">
<stop stop-color="#6366F1"/>
<stop offset="1" stop-color="#22D3EE"/>
</linearGradient>
<linearGradient id="paint14_linear_10380_47859" x1="107.815" y1="-0.957227" x2="104.583" y2="-0.692379" gradientUnits="userSpaceOnUse">
<stop stop-color="#6366F1"/>
<stop offset="1" stop-color="#22D3EE"/>
</linearGradient>
<linearGradient id="paint15_linear_10380_47859" x1="123.521" y1="1.79911" x2="109.186" y2="11.1016" gradientUnits="userSpaceOnUse">
<stop stop-color="#6366F1"/>
<stop offset="1" stop-color="#22D3EE"/>
</linearGradient>
<linearGradient id="paint16_linear_10380_47859" x1="123.521" y1="0.176941" x2="108.031" y2="8.87318" gradientUnits="userSpaceOnUse">
<stop stop-color="#6366F1"/>
<stop offset="1" stop-color="#22D3EE"/>
</linearGradient>
<linearGradient id="paint17_linear_10380_47859" x1="31.3785" y1="9.77877" x2="15.2485" y2="22.3552" gradientUnits="userSpaceOnUse">
<stop stop-color="#6366F1"/>
<stop offset="1" stop-color="#22D3EE"/>
</linearGradient>
<linearGradient id="paint18_linear_10380_47859" x1="51.8363" y1="16.6289" x2="39.1597" y2="21.9546" gradientUnits="userSpaceOnUse">
<stop stop-color="#6366F1"/>
<stop offset="1" stop-color="#22D3EE"/>
</linearGradient>
<linearGradient id="paint19_linear_10380_47859" x1="82.1318" y1="9.47888" x2="70.6026" y2="14.2798" gradientUnits="userSpaceOnUse">
<stop stop-color="#6366F1"/>
<stop offset="1" stop-color="#22D3EE"/>
</linearGradient>
<linearGradient id="paint20_linear_10380_47859" x1="92.7797" y1="9.47913" x2="79.8719" y2="15.8614" gradientUnits="userSpaceOnUse">
<stop stop-color="#6366F1"/>
<stop offset="1" stop-color="#22D3EE"/>
</linearGradient>
<linearGradient id="paint21_linear_10380_47859" x1="123.542" y1="11.2742" x2="108.795" y2="20.5371" gradientUnits="userSpaceOnUse">
<stop stop-color="#6366F1"/>
<stop offset="1" stop-color="#22D3EE"/>
</linearGradient>
<linearGradient id="paint22_linear_10380_47859" x1="123.522" y1="11.2936" x2="110.396" y2="21.046" gradientUnits="userSpaceOnUse">
<stop stop-color="#6366F1"/>
<stop offset="1" stop-color="#22D3EE"/>
</linearGradient>
<linearGradient id="paint23_linear_10380_47859" x1="47.8865" y1="22.3862" x2="35.1728" y2="28.0215" gradientUnits="userSpaceOnUse">
<stop stop-color="#6366F1"/>
<stop offset="1" stop-color="#22D3EE"/>
</linearGradient>
<linearGradient id="paint24_linear_10380_47859" x1="49.9865" y1="22.5289" x2="39.2727" y2="27.1843" gradientUnits="userSpaceOnUse">
<stop stop-color="#6366F1"/>
<stop offset="1" stop-color="#22D3EE"/>
</linearGradient>
<linearGradient id="paint25_linear_10380_47859" x1="88.9771" y1="18.3526" x2="76.4104" y2="20.8165" gradientUnits="userSpaceOnUse">
<stop stop-color="#6366F1"/>
<stop offset="1" stop-color="#22D3EE"/>
</linearGradient>
<linearGradient id="paint26_linear_10380_47859" x1="90.7394" y1="18.5718" x2="77.7756" y2="21.5802" gradientUnits="userSpaceOnUse">
<stop stop-color="#6366F1"/>
<stop offset="1" stop-color="#22D3EE"/>
</linearGradient>
<linearGradient id="paint27_linear_10380_47859" x1="96.4104" y1="19.5379" x2="86.3639" y2="21.4038" gradientUnits="userSpaceOnUse">
<stop stop-color="#6366F1"/>
<stop offset="1" stop-color="#22D3EE"/>
</linearGradient>
<linearGradient id="paint28_linear_10380_47859" x1="123.542" y1="18.6796" x2="105.856" y2="25.8155" gradientUnits="userSpaceOnUse">
<stop stop-color="#6366F1"/>
<stop offset="1" stop-color="#22D3EE"/>
</linearGradient>
<linearGradient id="paint29_linear_10380_47859" x1="30.8722" y1="34.6014" x2="20.2041" y2="41.68" gradientUnits="userSpaceOnUse">
<stop stop-color="#6366F1"/>
<stop offset="1" stop-color="#22D3EE"/>
</linearGradient>
<linearGradient id="paint30_linear_10380_47859" x1="61.4672" y1="30.5497" x2="43.794" y2="36.3648" gradientUnits="userSpaceOnUse">
<stop stop-color="#6366F1"/>
<stop offset="1" stop-color="#22D3EE"/>
</linearGradient>
<linearGradient id="paint31_linear_10380_47859" x1="61.2609" y1="30.5499" x2="45.031" y2="35.3644" gradientUnits="userSpaceOnUse">
<stop stop-color="#6366F1"/>
<stop offset="1" stop-color="#22D3EE"/>
</linearGradient>
<linearGradient id="paint32_linear_10380_47859" x1="95.9514" y1="37.1211" x2="86.8615" y2="39.7555" gradientUnits="userSpaceOnUse">
<stop stop-color="#6366F1"/>
<stop offset="1" stop-color="#22D3EE"/>
</linearGradient>
<linearGradient id="paint33_linear_10380_47859" x1="68.1124" y1="49.2042" x2="53.4999" y2="56.081" gradientUnits="userSpaceOnUse">
<stop stop-color="#6366F1"/>
<stop offset="1" stop-color="#22D3EE"/>
</linearGradient>
<linearGradient id="paint34_linear_10380_47859" x1="67.1866" y1="44.9544" x2="58.2796" y2="46.5692" gradientUnits="userSpaceOnUse">
<stop stop-color="#6366F1"/>
<stop offset="1" stop-color="#22D3EE"/>
</linearGradient>
<linearGradient id="paint35_linear_10380_47859" x1="123.183" y1="41.1613" x2="104.948" y2="46.9164" gradientUnits="userSpaceOnUse">
<stop stop-color="#6366F1"/>
<stop offset="1" stop-color="#22D3EE"/>
</linearGradient>
<linearGradient id="paint36_linear_10380_47859" x1="118.432" y1="40.8544" x2="105.22" y2="44.9131" gradientUnits="userSpaceOnUse">
<stop stop-color="#6366F1"/>
<stop offset="1" stop-color="#22D3EE"/>
</linearGradient>
<linearGradient id="paint37_linear_10380_47859" x1="58.3576" y1="52.5003" x2="44.8833" y2="57.4897" gradientUnits="userSpaceOnUse">
<stop stop-color="#3B82F6"/>
<stop offset="1" stop-color="#22D3EE"/>
</linearGradient>
<linearGradient id="paint38_linear_10380_47859" x1="110.846" y1="55.5801" x2="100.346" y2="59.7103" gradientUnits="userSpaceOnUse">
<stop stop-color="#6366F1"/>
<stop offset="1" stop-color="#22D3EE"/>
</linearGradient>
<linearGradient id="paint39_linear_10380_47859" x1="106.955" y1="55.5801" x2="99.8366" y2="57.3228" gradientUnits="userSpaceOnUse">
<stop stop-color="#6366F1"/>
<stop offset="1" stop-color="#22D3EE"/>
</linearGradient>
<linearGradient id="paint40_linear_10380_47859" x1="117.308" y1="55.5408" x2="106.045" y2="60.1339" gradientUnits="userSpaceOnUse">
<stop stop-color="#6366F1"/>
<stop offset="1" stop-color="#22D3EE"/>
</linearGradient>
<linearGradient id="paint41_linear_10380_47859" x1="123.531" y1="55.5406" x2="108.953" y2="64.8012" gradientUnits="userSpaceOnUse">
<stop stop-color="#6366F1"/>
<stop offset="1" stop-color="#22D3EE"/>
</linearGradient>
<linearGradient id="paint42_linear_10380_47859" x1="65.0152" y1="29.9441" x2="46.6628" y2="64.4897" gradientUnits="userSpaceOnUse">
<stop stop-color="#D1D5DB"/>
<stop offset="0.43393" stop-color="#F9FAFB"/>
</linearGradient>
<linearGradient id="paint43_linear_10380_47859" x1="66.3963" y1="27.3646" x2="80.1295" y2="6.19316" gradientUnits="userSpaceOnUse">
<stop stop-color="#D1D5DB"/>
<stop offset="0.556468" stop-color="#F9FAFB"/>
</linearGradient>
</defs>
</svg>
