<svg width="174" height="26" viewBox="0 0 174 26" fill="none" xmlns="http://www.w3.org/2000/svg">
<path d="M50.2085 5.37809C51.4557 5.37809 52.5665 5.62168 53.5408 6.10886C54.5347 6.59605 55.3142 7.3463 55.8793 8.35964C56.4444 9.35349 56.727 10.6396 56.727 12.2181V21.1628H53.0731V12.6858C53.0731 11.3022 52.7419 10.2694 52.0793 9.58734C51.4362 8.90528 50.5301 8.56426 49.3608 8.56426C48.5034 8.56426 47.7434 8.73964 47.0808 9.09041C46.4182 9.44118 45.9018 9.96734 45.5316 10.6689C45.1808 11.3509 45.0054 12.2181 45.0054 13.2704V21.1628H41.3516V5.55348H44.83V9.76272L44.2162 8.47657C44.7618 7.48272 45.5511 6.72271 46.5839 6.19656C47.6362 5.65091 48.8444 5.37809 50.2085 5.37809Z" fill="#4B5563"/>
<path d="M67.9683 21.3674C66.6432 21.3674 65.474 21.1238 64.4606 20.6366C63.4473 20.1299 62.6581 19.3699 62.0929 18.3566C61.5278 17.3238 61.2452 16.0279 61.2452 14.4689V5.55348H64.8991V13.972C64.8991 15.3751 65.2109 16.4274 65.8345 17.1289C66.4776 17.811 67.3837 18.152 68.553 18.152C69.4104 18.152 70.1509 17.9766 70.7745 17.6258C71.4176 17.2751 71.9145 16.7489 72.2653 16.0474C72.6355 15.3458 72.8207 14.4786 72.8207 13.4458V5.55348H76.4745V21.1628H72.996V16.9535L73.6099 18.2397C73.0837 19.253 72.314 20.0325 71.3007 20.5781C70.2873 21.1043 69.1765 21.3674 67.9683 21.3674Z" fill="#4B5563"/>
<path d="M88.4201 21.3674C86.7832 21.3674 85.3217 21.0264 84.0355 20.3443C82.7688 19.6428 81.775 18.6879 81.0539 17.4797C80.3329 16.2715 79.9724 14.8976 79.9724 13.3581C79.9724 11.7991 80.3329 10.4253 81.0539 9.23657C81.775 8.02836 82.7688 7.08323 84.0355 6.40117C85.3217 5.71912 86.7832 5.37809 88.4201 5.37809C89.9401 5.37809 91.275 5.68989 92.4248 6.31348C93.594 6.91759 94.4807 7.814 95.0848 9.00272L92.2786 10.6397C91.8109 9.89914 91.236 9.35349 90.554 9.00272C89.8914 8.65195 89.1704 8.47657 88.3909 8.47657C87.4945 8.47657 86.6858 8.67144 85.9647 9.06118C85.2437 9.45093 84.6786 10.0161 84.2693 10.7566C83.8601 11.4776 83.6555 12.3448 83.6555 13.3581C83.6555 14.3715 83.8601 15.2484 84.2693 15.9889C84.6786 16.7099 85.2437 17.2653 85.9647 17.6551C86.6858 18.0448 87.4945 18.2397 88.3909 18.2397C89.1704 18.2397 89.8914 18.0643 90.554 17.7135C91.236 17.3628 91.8109 16.8171 92.2786 16.0766L95.0848 17.7135C94.4807 18.8828 93.594 19.7889 92.4248 20.432C91.275 21.0556 89.9401 21.3674 88.4201 21.3674Z" fill="#4B5563"/>
<path d="M98.1006 21.1628V1.1189H101.754V21.1628H98.1006Z" fill="#4B5563"/>
<path d="M113.887 21.3674C112.153 21.3674 110.633 21.0264 109.327 20.3443C108.041 19.6428 107.037 18.6879 106.316 17.4797C105.615 16.2715 105.264 14.8976 105.264 13.3581C105.264 11.7991 105.605 10.4253 106.287 9.23657C106.989 8.02836 107.943 7.08323 109.152 6.40117C110.379 5.71912 111.773 5.37809 113.332 5.37809C114.852 5.37809 116.206 5.70937 117.395 6.37194C118.584 7.03451 119.519 7.9699 120.201 9.17811C120.883 10.3863 121.224 11.8089 121.224 13.4458C121.224 13.6017 121.214 13.7771 121.195 13.972C121.195 14.1668 121.185 14.352 121.166 14.5274H108.158V12.1012H119.236L117.804 12.8612C117.824 11.9648 117.638 11.1756 117.249 10.4935C116.859 9.81144 116.323 9.27554 115.641 8.8858C114.978 8.49605 114.209 8.30118 113.332 8.30118C112.435 8.30118 111.646 8.49605 110.964 8.8858C110.301 9.27554 109.775 9.82119 109.386 10.5227C109.015 11.2048 108.83 12.0135 108.83 12.9489V13.5335C108.83 14.4689 109.044 15.2971 109.473 16.0181C109.902 16.7392 110.506 17.2945 111.286 17.6843C112.065 18.074 112.961 18.2689 113.975 18.2689C114.852 18.2689 115.641 18.1325 116.342 17.8597C117.044 17.5869 117.668 17.1581 118.213 16.5735L120.172 18.8243C119.47 19.6428 118.584 20.2761 117.512 20.7243C116.459 21.153 115.251 21.3674 113.887 21.3674Z" fill="#4B5563"/>
<path d="M131.34 21.3674C130.015 21.3674 128.846 21.1238 127.832 20.6366C126.819 20.1299 126.03 19.3699 125.465 18.3566C124.899 17.3238 124.617 16.0279 124.617 14.4689V5.55348H128.271V13.972C128.271 15.3751 128.583 16.4274 129.206 17.1289C129.849 17.811 130.755 18.152 131.925 18.152C132.782 18.152 133.523 17.9766 134.146 17.6258C134.789 17.2751 135.286 16.7489 135.637 16.0474C136.007 15.3458 136.192 14.4786 136.192 13.4458V5.55348H139.846V21.1628H136.368V16.9535L136.982 18.2397C136.455 19.253 135.686 20.0325 134.672 20.5781C133.659 21.1043 132.548 21.3674 131.34 21.3674Z" fill="#4B5563"/>
<path d="M149.453 21.3674C148.148 21.3674 146.891 21.2017 145.683 20.8705C144.494 20.5197 143.549 20.1007 142.847 19.6135L144.25 16.8366C144.952 17.2848 145.79 17.6551 146.764 17.9474C147.738 18.2397 148.713 18.3858 149.687 18.3858C150.837 18.3858 151.665 18.2299 152.172 17.9181C152.698 17.6063 152.961 17.1874 152.961 16.6612C152.961 16.2325 152.786 15.911 152.435 15.6966C152.084 15.4627 151.626 15.2874 151.061 15.1704C150.496 15.0535 149.863 14.9463 149.161 14.8489C148.479 14.7515 147.787 14.6248 147.086 14.4689C146.404 14.2935 145.78 14.0499 145.215 13.7381C144.65 13.4068 144.192 12.9684 143.841 12.4227C143.49 11.8771 143.315 11.1561 143.315 10.2596C143.315 9.2658 143.597 8.40836 144.163 7.68733C144.728 6.94682 145.517 6.38169 146.53 5.99194C147.563 5.58271 148.781 5.37809 150.184 5.37809C151.236 5.37809 152.298 5.49502 153.37 5.72886C154.442 5.96271 155.329 6.29399 156.03 6.72271L154.627 9.49965C153.887 9.05144 153.136 8.74939 152.376 8.59349C151.636 8.4181 150.895 8.33041 150.155 8.33041C149.044 8.33041 148.216 8.49605 147.67 8.82734C147.144 9.15862 146.881 9.57759 146.881 10.0843C146.881 10.552 147.056 10.9027 147.407 11.1366C147.758 11.3704 148.216 11.5556 148.781 11.692C149.346 11.8284 149.97 11.9453 150.652 12.0427C151.353 12.1207 152.045 12.2473 152.727 12.4227C153.409 12.5981 154.033 12.8417 154.598 13.1535C155.183 13.4458 155.65 13.8648 156.001 14.4104C156.352 14.9561 156.527 15.6674 156.527 16.5443C156.527 17.5187 156.235 18.3663 155.65 19.0874C155.085 19.8084 154.276 20.3735 153.224 20.7828C152.172 21.1725 150.915 21.3674 149.453 21.3674Z" fill="#4B5563"/>
<path d="M159.795 7.37406V1.39465H161.646C162.001 1.39465 162.312 1.46837 162.58 1.61581C162.847 1.75779 163.055 1.9571 163.202 2.21375C163.35 2.4704 163.424 2.77074 163.424 3.11476C163.424 3.51885 163.317 3.8656 163.104 4.15501C162.897 4.44443 162.613 4.64374 162.252 4.75295L163.505 7.37406H162.637L161.49 4.83486H160.532V7.37406H159.795ZM160.532 4.17139H161.646C161.952 4.17139 162.198 4.07583 162.383 3.88471C162.569 3.68813 162.662 3.43148 162.662 3.11476C162.662 2.79258 162.569 2.53593 162.383 2.34481C162.198 2.15368 161.952 2.05812 161.646 2.05812H160.532V4.17139Z" fill="#9CA3AF"/>
<path d="M166.443 7.45597C166.082 7.45597 165.768 7.38772 165.501 7.2512C165.239 7.11468 165.034 6.9181 164.887 6.66145C164.745 6.39934 164.674 6.09081 164.674 5.73587V3.03285C164.674 2.67245 164.745 2.36392 164.887 2.10727C165.034 1.85062 165.239 1.65403 165.501 1.51752C165.768 1.381 166.082 1.31274 166.443 1.31274C166.803 1.31274 167.114 1.38373 167.377 1.52571C167.639 1.66223 167.841 1.85881 167.983 2.11546C168.125 2.37211 168.196 2.67791 168.196 3.03285H167.458C167.458 2.69429 167.368 2.43491 167.188 2.25471C167.013 2.06904 166.765 1.97621 166.443 1.97621C166.121 1.97621 165.867 2.06631 165.681 2.24651C165.501 2.42672 165.411 2.6861 165.411 3.02466V5.73587C165.411 6.07443 165.501 6.33654 165.681 6.5222C165.867 6.7024 166.121 6.79251 166.443 6.79251C166.765 6.79251 167.013 6.7024 167.188 6.5222C167.368 6.33654 167.458 6.07443 167.458 5.73587H168.196C168.196 6.08535 168.125 6.39115 167.983 6.65326C167.841 6.90991 167.639 7.10922 167.377 7.2512C167.114 7.38772 166.803 7.45597 166.443 7.45597Z" fill="#9CA3AF"/>
<path d="M169.487 7.37406V1.39465H170.453L171.076 3.32772C171.136 3.50246 171.19 3.6772 171.24 3.85195C171.289 4.02123 171.324 4.15228 171.346 4.24511C171.373 4.15228 171.409 4.02123 171.452 3.85195C171.496 3.6772 171.545 3.49973 171.6 3.31953L172.19 1.39465H173.156V7.37406H172.435V5.20346C172.435 4.96319 172.444 4.69016 172.46 4.38436C172.476 4.07856 172.498 3.76731 172.525 3.45059C172.553 3.12841 172.58 2.82261 172.607 2.5332C172.64 2.23832 172.667 1.98167 172.689 1.76325L171.723 4.75295H170.945L169.97 1.76325C169.997 1.97621 170.025 2.22467 170.052 2.50863C170.079 2.78712 170.104 3.08472 170.126 3.40144C170.147 3.7127 170.166 4.02396 170.183 4.33521C170.199 4.64647 170.207 4.93588 170.207 5.20346V7.37406H169.487Z" fill="#9CA3AF"/>
<mask id="mask0_12210_39479" style="mask-type:alpha" maskUnits="userSpaceOnUse" x="-1" y="1" width="37" height="25">
<path d="M10.9849 5.42211L22.652 25.3698L22.6531 25.3691L23.8498 25.3695C27.3287 25.3706 30.7866 23.8735 33.1806 20.9751C37.4421 15.8156 36.7236 8.17065 31.5758 3.89952C29.3145 2.02338 26.5717 1.10969 23.8485 1.11354L22.652 1.11524L22.7239 5.34328H23.8521C25.6269 5.34046 27.4104 5.93443 28.8847 7.15766C32.2371 9.93918 32.705 14.9179 29.9298 18.2779C28.6195 19.8643 26.8216 20.8065 24.933 21.066L13.2633 1.11389L12.1046 1.11353C8.62577 1.11244 5.16787 2.6095 2.77387 5.50794C-1.48761 10.6674 -0.769122 18.3124 4.37867 22.5835C6.6399 24.4596 9.38276 25.3733 12.1059 25.3695L13.3025 25.3678V21.1378L12.1023 21.1397C10.3276 21.1426 8.54406 20.5486 7.06976 19.3253C3.71732 16.5438 3.24941 11.5651 6.02465 8.20512C7.32649 6.62896 9.10964 5.68872 10.9849 5.42211Z" fill="url(#paint0_linear_12210_39479)"/>
</mask>
<g mask="url(#mask0_12210_39479)">
<rect x="-3.18555" y="-0.0546875" width="40.367" height="26.0893" fill="url(#paint1_linear_12210_39479)"/>
<path d="M-1.61424 -2.9751L-3.48047 3.36466L0.0998623 2.58406L-0.754659 -2.9751H-1.61424Z" fill="url(#paint2_linear_12210_39479)"/>
<path d="M-0.753906 -2.9751L0.100615 2.58406L2.45293 0.481797L0.201078 -2.9751H-0.753906Z" fill="url(#paint3_linear_12210_39479)"/>
<path d="M7.34531 -2.9751L2.45117 0.481796L11.4147 2.09907L10.2248 -2.9751H7.34531Z" fill="#70E8F8"/>
<path d="M10.2246 -2.9751L11.4145 2.09907L14.4868 -0.295755L11.6578 -2.9751H10.2246Z" fill="#A9F4FB"/>
<path d="M16.5534 -2.9751L14.4883 -0.295755L19.1816 1.99283L18.4354 -2.9751H16.5534Z" fill="url(#paint4_linear_12210_39479)"/>
<path d="M18.4355 -2.9751L19.1818 1.99283L25.0764 -0.443465L21.2319 -2.9751H18.4355Z" fill="url(#paint5_linear_12210_39479)"/>
<path d="M35.7603 -1.93066L35.2168 0.771394L36.2669 3.44301L35.7603 -1.93066Z" fill="url(#paint6_linear_12210_39479)"/>
<path d="M42.2963 -0.304108L35.7598 -1.93066L35.7598 -1.9306L36.2664 3.44308L42.2963 1.22198V-0.304108Z" fill="url(#paint7_linear_12210_39479)"/>
<path d="M-6.37695 8.41691L1.99297 5.35772L-3.48072 3.36481V3.36475L-6.37695 7.94335V8.41691Z" fill="url(#paint8_linear_12210_39479)"/>
<path d="M-3.48047 3.36465L1.99315 5.35763L0.0998626 2.58398L-3.48047 3.36465Z" fill="url(#paint9_linear_12210_39479)"/>
<path d="M2.45128 0.481689L1.99219 5.35759L4.89141 7.40833L2.45128 0.481689Z" fill="#3AD5EC"/>
<path d="M2.45199 0.481689L1.9929 5.35759L0.0996094 2.58402L2.45199 0.481689Z" fill="url(#paint10_linear_12210_39479)"/>
<path d="M2.45117 0.481689L11.3958 8.36234L4.8913 7.40833L2.45117 0.481689Z" fill="#28B7D3"/>
<path d="M2.45117 0.481689L11.3958 8.36234L11.4146 2.09903L2.45117 0.481689Z" fill="#3AD5EC"/>
<path d="M14.4877 -0.295654L11.3965 8.36242L15.8851 4.41164L14.4875 -0.295654H14.4877Z" fill="#70E8F8"/>
<path d="M14.4877 -0.295654L11.3965 8.36242L11.4152 2.09911L14.4877 -0.295654Z" fill="#28B7D3"/>
<path d="M14.4883 -0.295654L20.2621 5.85304L15.8858 4.41164L14.4883 -0.295654H14.4883Z" fill="url(#paint11_linear_12210_39479)"/>
<path d="M14.4883 -0.295654L20.262 5.85304L19.1816 1.99293L14.4883 -0.295654Z" fill="url(#paint12_linear_12210_39479)"/>
<path d="M25.0759 -0.443295L20.2617 5.85311L24.6276 5.21782L25.0758 -0.443359L25.0759 -0.443295Z" fill="#443FC7"/>
<path d="M25.0763 -0.443359L20.2621 5.85305L19.1816 1.99294L25.0763 -0.443359Z" fill="#656CEE"/>
<path d="M25.0753 -0.443295L29.1368 6.84334L24.627 5.21782L25.0752 -0.443359L25.0753 -0.443295Z" fill="#514EE3"/>
<path d="M25.0762 -0.443359L29.1377 6.84327L29.0005 0.862597L25.0762 -0.443359Z" fill="#656CEE"/>
<path d="M35.2165 0.771484L29.1367 6.84315L34.8673 7.68287L35.2165 0.771484Z" fill="#656CEE"/>
<path d="M35.217 0.771484L29.1372 6.84315L29 0.862472L35.217 0.771484Z" fill="#443FC7"/>
<path d="M35.2164 0.771484L35.722 6.00096L34.8672 7.68287L35.2164 0.771484Z" fill="url(#paint13_linear_12210_39479)"/>
<path d="M35.2168 0.771484L35.7224 6.00096L36.2669 3.4431L35.2168 0.771484Z" fill="url(#paint14_linear_12210_39479)"/>
<path d="M42.2971 1.86646L35.7227 6.00109L42.2971 5.94352V1.86646Z" fill="url(#paint15_linear_12210_39479)"/>
<path d="M42.2971 1.22217L36.2672 3.44326L35.7227 6.00111L42.2971 1.86648V1.22217Z" fill="url(#paint16_linear_12210_39479)"/>
<path d="M1.9929 5.35767L-3.375 9.73846L0.822453 10.1887L1.99284 5.3578L1.9929 5.35767Z" fill="#70E8F8"/>
<path d="M-6.37695 8.41692V8.69482L-3.37493 9.73846L1.99297 5.35767L-6.37695 8.41692Z" fill="url(#paint17_linear_12210_39479)"/>
<path d="M1.99271 5.35767L6.58339 10.8498L0.822266 10.1887L1.99265 5.35773L1.99271 5.35767Z" fill="#3AD5EC"/>
<path d="M1.99219 5.35767L6.58286 10.8498L4.89134 7.40846L1.99219 5.35767Z" fill="#70E8F8"/>
<path d="M11.397 8.36243L6.58398 10.8497L10.6944 13.0375L11.397 8.3623V8.36243Z" fill="url(#paint18_linear_12210_39479)"/>
<path d="M11.3971 8.36252L6.5841 10.8498L4.89258 7.40845L11.3971 8.36252Z" fill="#2093B0"/>
<path d="M11.396 8.36237L14.7481 10.1137L10.6934 13.0375L11.396 8.36237Z" fill="#28A6E7"/>
<path d="M11.3965 8.36246L14.7486 10.1138L15.8851 4.41162L11.3965 8.36246Z" fill="#3AD5EC"/>
<path d="M20.2608 5.85303L14.748 10.1139L18.5031 12.1628L20.2608 5.85303Z" fill="#28A6E7"/>
<path d="M20.2608 5.85296L14.748 10.1138L15.8845 4.41162L20.2608 5.85296Z" fill="#28B7D3"/>
<path d="M20.2615 5.85303L23.9533 9.49631L18.5039 12.1628L20.2615 5.85303Z" fill="#45BFF7"/>
<path d="M20.2617 5.85307L23.9535 9.49635L24.6276 5.21777L20.2617 5.85307Z" fill="url(#paint19_linear_12210_39479)"/>
<path d="M29.1371 6.84333L23.9531 9.49632L28.362 9.88013L29.1371 6.84333Z" fill="#443FC7"/>
<path d="M29.1371 6.84336L23.9531 9.49635L24.6272 5.21777L29.1371 6.84336Z" fill="url(#paint20_linear_12210_39479)"/>
<path d="M29.1384 6.84333L30.9799 12.4055L28.3633 9.88013L29.1384 6.84333Z" fill="#8290F6"/>
<path d="M29.1367 6.84326L30.9782 12.4055L34.8673 7.68299L29.1367 6.84326Z" fill="#514EE3"/>
<path d="M35.7224 6.00122L30.9785 12.4056L35.66 9.44552L35.7224 6.00122Z" fill="#656CEE"/>
<path d="M35.7224 6.00122L30.9785 12.4056L34.8676 7.68314L35.7224 6.00122Z" fill="#443FC7"/>
<path d="M42.297 9.55444L35.7226 6.00104L35.7225 6.00098L35.6602 9.44528L42.297 10.3129V9.55444Z" fill="url(#paint21_linear_12210_39479)"/>
<path d="M42.297 5.94336L35.7227 6.00099L42.297 9.55439V5.94336Z" fill="url(#paint22_linear_12210_39479)"/>
<path d="M-6.37695 17.7968L2.2647 16.0203L-3.37487 9.73828L-3.37493 9.73835L-6.37695 17.0308V17.7968Z" fill="#70E8F8"/>
<path d="M-3.375 9.73828L2.26463 16.0203L0.822453 10.1886L-3.375 9.73828Z" fill="#2093B0"/>
<path d="M6.58268 10.8499L2.26367 16.0203L4.75617 15.3695L6.58268 10.8499Z" fill="#3AD5EC"/>
<path d="M6.58345 10.8497L2.26444 16.0201L0.822266 10.1885L6.58345 10.8497Z" fill="#28B7D3"/>
<path d="M6.58432 10.8499L9.66688 14.7102L4.75781 15.3695L6.58432 10.8499Z" fill="url(#paint23_linear_12210_39479)"/>
<path d="M6.58398 10.8499L9.66654 14.7102L10.6943 13.0377L6.58398 10.8499Z" fill="url(#paint24_linear_12210_39479)"/>
<path d="M14.7486 10.1138L9.66602 14.7101L13.5292 17.0094L14.7486 10.1138Z" fill="#1A86C5"/>
<path d="M14.7486 10.1138L9.66602 14.7101L10.6938 13.0376L14.7486 10.1138Z" fill="#28A6E7"/>
<path d="M14.7487 10.1138L21.2616 15.7291L13.5293 17.0094L14.7487 10.1138Z" fill="#28A6E7"/>
<path d="M14.748 10.1138L21.2609 15.7291L18.5031 12.1628L14.748 10.1138Z" fill="#45BFF7"/>
<path d="M23.9533 9.49634L21.2617 15.7291L23.4134 18.2619L23.9533 9.49634Z" fill="#28A6E7"/>
<path d="M23.9533 9.49634L21.2616 15.7291L18.5039 12.1628L23.9533 9.49634Z" fill="#1A86C5"/>
<path d="M23.954 9.49634L27.6255 17.2497L23.4141 18.2618L23.954 9.49634Z" fill="url(#paint25_linear_12210_39479)"/>
<path d="M23.9531 9.49634L27.6246 17.2497L28.3621 9.88008L23.9531 9.49634Z" fill="url(#paint26_linear_12210_39479)"/>
<path d="M30.979 12.4055L27.625 17.2497L32.3775 14.5254L30.979 12.4055Z" fill="#95C7FC"/>
<path d="M30.979 12.4055L27.625 17.2497L28.3625 9.88013L30.979 12.4055Z" fill="url(#paint27_linear_12210_39479)"/>
<path d="M30.9785 12.4055L39.1164 16.1582L32.377 14.5254L30.9785 12.4055Z" fill="#4285F4"/>
<path d="M30.9785 12.4055L39.1164 16.1581L35.66 9.44531L30.9785 12.4055Z" fill="#514EE3"/>
<path d="M42.297 10.3129L35.6602 9.44531L39.1165 16.1581L42.297 12.6164V10.3129Z" fill="url(#paint28_linear_12210_39479)"/>
<path d="M2.26503 16.0203L-2.69336 19.0699L-2.08695 18.8948L2.26516 16.0203L2.26503 16.0203Z" fill="url(#paint29_linear_12210_39479)"/>
<path d="M-6.37695 17.7968V17.9705L-2.69376 19.0699L2.26463 16.0203L-6.37695 17.7968Z" fill="#2093B0"/>
<path d="M2.26415 16.0203L6.14736 21.5352L-2.08789 18.8948L2.26421 16.0203L2.26415 16.0203Z" fill="#3AD5EC"/>
<path d="M2.26367 16.0203L6.14689 21.5351L4.75624 15.3694L2.26367 16.0203Z" fill="#28B7D3"/>
<path d="M9.66692 14.71L6.14844 21.5351L9.04448 19.7247L9.66685 14.71L9.66692 14.71Z" fill="#3AD5EC"/>
<path d="M9.66694 14.7102L6.14846 21.5353L4.75781 15.3696L9.66694 14.7102Z" fill="#70E8F8"/>
<path d="M9.66535 14.71L15.3639 22.5495L9.04297 19.7247L9.66535 14.71V14.71Z" fill="url(#paint30_linear_12210_39479)"/>
<path d="M9.66602 14.7102L15.3646 22.5497L13.5292 17.0094L9.66602 14.7102Z" fill="url(#paint31_linear_12210_39479)"/>
<path d="M21.2621 15.729L15.3652 22.5495L17.4698 20.8615L21.2621 15.729H21.2621Z" fill="#166BA0"/>
<path d="M21.2616 15.729L15.3647 22.5495L13.5293 17.0093L21.2616 15.729Z" fill="#1A86C5"/>
<path d="M21.261 15.7291L22.1174 22.1966L17.4688 20.8615L21.261 15.729L21.261 15.7291Z" fill="#45BFF7"/>
<path d="M21.2617 15.729L22.1181 22.1965L23.4133 18.2617L21.2617 15.729Z" fill="#28A6E7"/>
<path d="M27.6238 17.2495L22.1172 22.1965L30.5723 20.8683L27.6238 17.2496L27.6238 17.2495Z" fill="#166BA0"/>
<path d="M27.6238 17.2495L22.1172 22.1965L23.4124 18.2617L27.6238 17.2495Z" fill="#1A86C5"/>
<path d="M27.625 17.2495L30.8048 21.7271L30.5736 20.8683L27.6251 17.2496L27.625 17.2495Z" fill="url(#paint32_linear_12210_39479)"/>
<path d="M27.625 17.2496L30.8048 21.7272L32.3776 14.5254L27.625 17.2496Z" fill="#4285F4"/>
<path d="M39.1167 16.158L30.8047 21.727L38.9087 19.0339L39.1167 16.158Z" fill="#2144AC"/>
<path d="M39.1167 16.1581L30.8047 21.7272L32.3774 14.5254L39.1167 16.1581Z" fill="#2C69E8"/>
<path d="M6.14861 21.5352L-0.00585938 26.3933L6.93155 26.1433L6.14861 21.5352Z" fill="#70E8F8"/>
<path d="M6.14736 21.5352L-0.00710893 26.3934L-2.08789 18.8948L6.14736 21.5352Z" fill="#28B7D3"/>
<path d="M6.14844 21.5352L9.26786 24.0248L6.93138 26.1432L6.14844 21.5352Z" fill="#28B7D3"/>
<path d="M6.14844 21.5353L9.26786 24.0249L9.04441 19.7249L6.14844 21.5353Z" fill="#70E8F8"/>
<path d="M15.3652 22.5496L9.26758 24.0248L12.574 26.8497L15.3651 22.5496H15.3652Z" fill="#28B7D3"/>
<path d="M15.364 22.5497L9.26642 24.0249L9.04297 19.7249L15.364 22.5497Z" fill="#3AD5EC"/>
<path d="M15.3654 22.5496L18.3344 27.5444L12.5742 26.8498L15.3654 22.5496L15.3654 22.5496Z" fill="url(#paint33_linear_12210_39479)"/>
<path d="M15.3652 22.5497L18.3342 27.5445L17.4698 20.8616L15.3652 22.5497Z" fill="url(#paint34_linear_12210_39479)"/>
<path d="M22.1182 22.1965L18.334 27.5443L24.4846 25.3734L22.1182 22.1965Z" fill="#45BFF7"/>
<path d="M22.1173 22.1967L18.3331 27.5445L17.4688 20.8616L22.1173 22.1967Z" fill="#1A86C5"/>
<path d="M22.1172 22.1965L27.3417 24.1488L24.4837 25.3734L22.1172 22.1965Z" fill="#28A6E7"/>
<path d="M22.1172 22.1967L27.3417 24.149L30.5724 20.8684L22.1172 22.1967Z" fill="#45BFF7"/>
<path d="M30.8038 21.7271L27.3418 24.1489L33.7364 25.2894L30.8038 21.7271Z" fill="#4285F4"/>
<path d="M30.8038 21.7271L27.3418 24.149L30.5725 20.8684L30.8038 21.7271Z" fill="#64A7F8"/>
<path d="M30.8048 21.7271L35.6944 25.2325L33.7373 25.2893L30.8048 21.7271Z" fill="#3270E9"/>
<path d="M30.8047 21.727L35.6943 25.2325L38.9087 19.0339L30.8047 21.727Z" fill="#4285F4"/>
<path d="M40.3594 19.3716L35.6934 25.2327L42.1641 27.7384L40.3594 19.3716Z" fill="url(#paint35_linear_12210_39479)"/>
<path d="M40.3594 19.3716L35.6934 25.2327L38.9077 19.0342L40.3594 19.3716Z" fill="url(#paint36_linear_12210_39479)"/>
<path d="M9.79247 29.4743L9.26706 24.0249L6.4082 28.6088L7.97577 29.4743H9.79247Z" fill="#3AD5EC"/>
<path d="M9.26706 24.0249L6.4082 28.6088L6.93057 26.1433L9.26706 24.0249Z" fill="#25AAC9"/>
<path d="M13.6785 29.4743L9.26758 24.0249L9.793 29.4743H13.6785Z" fill="#70E8F8"/>
<path d="M14.2122 29.4743L12.574 26.8499L9.26758 24.0249L13.6785 29.4743H14.2122Z" fill="url(#paint37_linear_12210_39479)"/>
<path d="M27.4073 29.4742L30.5395 28.7356L27.3426 24.1489L24.3535 29.4742H27.4073Z" fill="#82D5FB"/>
<path d="M24.3537 29.4743L27.3428 24.1489L24.4847 25.3735L23.9883 29.4743H24.3537Z" fill="#45BFF7"/>
<path d="M27.3418 24.1489L33.2583 29.2917L30.5386 28.7358L27.3418 24.1489Z" fill="#28A6E7"/>
<path d="M27.3418 24.1489L33.2583 29.2917L33.7363 25.2895L27.3418 24.1489Z" fill="#28A6E7"/>
<path d="M35.6948 25.2324L33.2598 29.2916L37.1725 28.3326L35.6948 25.2324Z" fill="url(#paint38_linear_12210_39479)"/>
<path d="M35.6948 25.2324L33.2598 29.2916L33.7378 25.2894L35.6948 25.2324Z" fill="url(#paint39_linear_12210_39479)"/>
<path d="M38.7892 29.4743H39.9323L35.6934 25.2327L37.171 28.3327L38.7892 29.4743Z" fill="url(#paint40_linear_12210_39479)"/>
<path d="M42.2963 28.9181L42.1642 27.7381L35.6934 25.2324L39.9325 29.4741H42.2963V28.9181Z" fill="url(#paint41_linear_12210_39479)"/>
</g>
<path fill-rule="evenodd" clip-rule="evenodd" d="M10.936 21.0789L15.482 13.1631L18.1138 17.6493L13.2688 25.3856L10.936 21.0789Z" fill="url(#paint42_linear_12210_39479)"/>
<path fill-rule="evenodd" clip-rule="evenodd" d="M25.2325 5.46668L20.5349 13.5525L17.9045 9.0655L22.6605 1.10017L25.2325 5.46668Z" fill="url(#paint43_linear_12210_39479)"/>
<defs>
<linearGradient id="paint0_linear_12210_39479" x1="41.1441" y1="-1.16896" x2="5.69022" y2="20.2841" gradientUnits="userSpaceOnUse">
<stop stop-color="#6366F1"/>
<stop offset="1" stop-color="#22D3EE"/>
</linearGradient>
<linearGradient id="paint1_linear_12210_39479" x1="38.1813" y1="-0.337646" x2="4.05701" y2="21.87" gradientUnits="userSpaceOnUse">
<stop offset="0.15625" stop-color="#6366F1"/>
<stop offset="1" stop-color="#06B6D4"/>
</linearGradient>
<linearGradient id="paint2_linear_12210_39479" x1="0.615895" y1="-3.57166" x2="-3.96251" y2="-2.5165" gradientUnits="userSpaceOnUse">
<stop stop-color="#6366F1"/>
<stop offset="1" stop-color="#22D3EE"/>
</linearGradient>
<linearGradient id="paint3_linear_12210_39479" x1="2.91513" y1="-3.49821" x2="-1.17671" y2="-2.53495" gradientUnits="userSpaceOnUse">
<stop stop-color="#6366F1"/>
<stop offset="1" stop-color="#22D3EE"/>
</linearGradient>
<linearGradient id="paint4_linear_12210_39479" x1="19.8581" y1="-3.44257" x2="14.3555" y2="-1.32114" gradientUnits="userSpaceOnUse">
<stop stop-color="#6366F1"/>
<stop offset="1" stop-color="#22D3EE"/>
</linearGradient>
<linearGradient id="paint5_linear_12210_39479" x1="26.0335" y1="-3.44257" x2="19.1414" y2="0.317153" gradientUnits="userSpaceOnUse">
<stop stop-color="#6366F1"/>
<stop offset="1" stop-color="#22D3EE"/>
</linearGradient>
<linearGradient id="paint6_linear_12210_39479" x1="36.4182" y1="-2.43632" x2="35.013" y2="-2.32427" gradientUnits="userSpaceOnUse">
<stop stop-color="#6366F1"/>
<stop offset="1" stop-color="#22D3EE"/>
</linearGradient>
<linearGradient id="paint7_linear_12210_39479" x1="43.2384" y1="-2.43633" x2="36.176" y2="1.06942" gradientUnits="userSpaceOnUse">
<stop stop-color="#6366F1"/>
<stop offset="1" stop-color="#22D3EE"/>
</linearGradient>
<linearGradient id="paint8_linear_12210_39479" x1="3.19932" y1="2.88934" x2="-4.53642" y2="8.11934" gradientUnits="userSpaceOnUse">
<stop stop-color="#6366F1"/>
<stop offset="1" stop-color="#22D3EE"/>
</linearGradient>
<linearGradient id="paint9_linear_12210_39479" x1="2.78206" y1="2.32299" x2="-1.68922" y2="5.9239" gradientUnits="userSpaceOnUse">
<stop stop-color="#6366F1"/>
<stop offset="1" stop-color="#22D3EE"/>
</linearGradient>
<linearGradient id="paint10_linear_12210_39479" x1="2.79104" y1="0.0228731" x2="-0.258665" y2="0.623309" gradientUnits="userSpaceOnUse">
<stop stop-color="#6366F1"/>
<stop offset="1" stop-color="#22D3EE"/>
</linearGradient>
<linearGradient id="paint11_linear_12210_39479" x1="21.0942" y1="-0.874239" x2="14.3144" y2="1.72385" gradientUnits="userSpaceOnUse">
<stop stop-color="#6366F1"/>
<stop offset="1" stop-color="#22D3EE"/>
</linearGradient>
<linearGradient id="paint12_linear_12210_39479" x1="21.0942" y1="-0.874239" x2="14.3144" y2="1.7238" gradientUnits="userSpaceOnUse">
<stop stop-color="#6366F1"/>
<stop offset="1" stop-color="#22D3EE"/>
</linearGradient>
<linearGradient id="paint13_linear_12210_39479" x1="35.8452" y1="0.121132" x2="34.697" y2="0.179082" gradientUnits="userSpaceOnUse">
<stop stop-color="#6366F1"/>
<stop offset="1" stop-color="#22D3EE"/>
</linearGradient>
<linearGradient id="paint14_linear_12210_39479" x1="36.4182" y1="0.279398" x2="35.0135" y2="0.394501" gradientUnits="userSpaceOnUse">
<stop stop-color="#6366F1"/>
<stop offset="1" stop-color="#22D3EE"/>
</linearGradient>
<linearGradient id="paint15_linear_12210_39479" x1="43.2447" y1="1.47739" x2="37.0144" y2="5.52023" gradientUnits="userSpaceOnUse">
<stop stop-color="#6366F1"/>
<stop offset="1" stop-color="#22D3EE"/>
</linearGradient>
<linearGradient id="paint16_linear_12210_39479" x1="43.2447" y1="0.772475" x2="36.5128" y2="4.55185" gradientUnits="userSpaceOnUse">
<stop stop-color="#6366F1"/>
<stop offset="1" stop-color="#22D3EE"/>
</linearGradient>
<linearGradient id="paint17_linear_12210_39479" x1="3.19932" y1="4.94544" x2="-3.81075" y2="10.4112" gradientUnits="userSpaceOnUse">
<stop stop-color="#6366F1"/>
<stop offset="1" stop-color="#22D3EE"/>
</linearGradient>
<linearGradient id="paint18_linear_12210_39479" x1="12.0907" y1="7.92238" x2="6.58147" y2="10.2369" gradientUnits="userSpaceOnUse">
<stop stop-color="#6366F1"/>
<stop offset="1" stop-color="#22D3EE"/>
</linearGradient>
<linearGradient id="paint19_linear_12210_39479" x1="25.2568" y1="4.81516" x2="20.2462" y2="6.90166" gradientUnits="userSpaceOnUse">
<stop stop-color="#6366F1"/>
<stop offset="1" stop-color="#22D3EE"/>
</linearGradient>
<linearGradient id="paint20_linear_12210_39479" x1="29.8843" y1="4.81516" x2="24.2745" y2="7.58888" gradientUnits="userSpaceOnUse">
<stop stop-color="#6366F1"/>
<stop offset="1" stop-color="#22D3EE"/>
</linearGradient>
<linearGradient id="paint21_linear_12210_39479" x1="43.2535" y1="5.59523" x2="36.8444" y2="9.6209" gradientUnits="userSpaceOnUse">
<stop stop-color="#6366F1"/>
<stop offset="1" stop-color="#22D3EE"/>
</linearGradient>
<linearGradient id="paint22_linear_12210_39479" x1="43.2446" y1="5.60357" x2="37.54" y2="9.84196" gradientUnits="userSpaceOnUse">
<stop stop-color="#6366F1"/>
<stop offset="1" stop-color="#22D3EE"/>
</linearGradient>
<linearGradient id="paint23_linear_12210_39479" x1="10.3744" y1="10.4246" x2="4.84902" y2="12.8737" gradientUnits="userSpaceOnUse">
<stop stop-color="#6366F1"/>
<stop offset="1" stop-color="#22D3EE"/>
</linearGradient>
<linearGradient id="paint24_linear_12210_39479" x1="11.2868" y1="10.4866" x2="6.63055" y2="12.5098" gradientUnits="userSpaceOnUse">
<stop stop-color="#6366F1"/>
<stop offset="1" stop-color="#22D3EE"/>
</linearGradient>
<linearGradient id="paint25_linear_12210_39479" x1="28.2325" y1="8.67152" x2="22.771" y2="9.74234" gradientUnits="userSpaceOnUse">
<stop stop-color="#6366F1"/>
<stop offset="1" stop-color="#22D3EE"/>
</linearGradient>
<linearGradient id="paint26_linear_12210_39479" x1="28.9975" y1="8.76676" x2="23.3635" y2="10.0742" gradientUnits="userSpaceOnUse">
<stop stop-color="#6366F1"/>
<stop offset="1" stop-color="#22D3EE"/>
</linearGradient>
<linearGradient id="paint27_linear_12210_39479" x1="31.4624" y1="9.18666" x2="27.0962" y2="9.99759" gradientUnits="userSpaceOnUse">
<stop stop-color="#6366F1"/>
<stop offset="1" stop-color="#22D3EE"/>
</linearGradient>
<linearGradient id="paint28_linear_12210_39479" x1="43.2535" y1="8.81365" x2="35.5671" y2="11.9149" gradientUnits="userSpaceOnUse">
<stop stop-color="#6366F1"/>
<stop offset="1" stop-color="#22D3EE"/>
</linearGradient>
<linearGradient id="paint29_linear_12210_39479" x1="2.97983" y1="15.7333" x2="-1.65652" y2="18.8096" gradientUnits="userSpaceOnUse">
<stop stop-color="#6366F1"/>
<stop offset="1" stop-color="#22D3EE"/>
</linearGradient>
<linearGradient id="paint30_linear_12210_39479" x1="16.2749" y1="13.9723" x2="8.59419" y2="16.4995" gradientUnits="userSpaceOnUse">
<stop stop-color="#6366F1"/>
<stop offset="1" stop-color="#22D3EE"/>
</linearGradient>
<linearGradient id="paint31_linear_12210_39479" x1="16.1859" y1="13.9725" x2="9.13242" y2="16.0649" gradientUnits="userSpaceOnUse">
<stop stop-color="#6366F1"/>
<stop offset="1" stop-color="#22D3EE"/>
</linearGradient>
<linearGradient id="paint32_linear_12210_39479" x1="31.2632" y1="16.8282" x2="27.3127" y2="17.9731" gradientUnits="userSpaceOnUse">
<stop stop-color="#6366F1"/>
<stop offset="1" stop-color="#22D3EE"/>
</linearGradient>
<linearGradient id="paint33_linear_12210_39479" x1="19.1646" y1="22.0796" x2="12.814" y2="25.0682" gradientUnits="userSpaceOnUse">
<stop stop-color="#6366F1"/>
<stop offset="1" stop-color="#22D3EE"/>
</linearGradient>
<linearGradient id="paint34_linear_12210_39479" x1="18.7621" y1="20.2327" x2="14.8911" y2="20.9345" gradientUnits="userSpaceOnUse">
<stop stop-color="#6366F1"/>
<stop offset="1" stop-color="#22D3EE"/>
</linearGradient>
<linearGradient id="paint35_linear_12210_39479" x1="43.0968" y1="18.5843" x2="35.1721" y2="21.0854" gradientUnits="userSpaceOnUse">
<stop stop-color="#6366F1"/>
<stop offset="1" stop-color="#22D3EE"/>
</linearGradient>
<linearGradient id="paint36_linear_12210_39479" x1="41.032" y1="18.4509" x2="35.2901" y2="20.2148" gradientUnits="userSpaceOnUse">
<stop stop-color="#6366F1"/>
<stop offset="1" stop-color="#22D3EE"/>
</linearGradient>
<linearGradient id="paint37_linear_12210_39479" x1="14.9249" y1="23.5121" x2="9.06894" y2="25.6805" gradientUnits="userSpaceOnUse">
<stop stop-color="#3B82F6"/>
<stop offset="1" stop-color="#22D3EE"/>
</linearGradient>
<linearGradient id="paint38_linear_12210_39479" x1="37.7364" y1="24.8505" x2="33.1733" y2="26.6455" gradientUnits="userSpaceOnUse">
<stop stop-color="#6366F1"/>
<stop offset="1" stop-color="#22D3EE"/>
</linearGradient>
<linearGradient id="paint39_linear_12210_39479" x1="36.0457" y1="24.8505" x2="32.9519" y2="25.6078" gradientUnits="userSpaceOnUse">
<stop stop-color="#6366F1"/>
<stop offset="1" stop-color="#22D3EE"/>
</linearGradient>
<linearGradient id="paint40_linear_12210_39479" x1="40.5433" y1="24.8335" x2="35.6488" y2="26.8297" gradientUnits="userSpaceOnUse">
<stop stop-color="#6366F1"/>
<stop offset="1" stop-color="#22D3EE"/>
</linearGradient>
<linearGradient id="paint41_linear_12210_39479" x1="43.248" y1="24.8333" x2="36.9126" y2="28.858" gradientUnits="userSpaceOnUse">
<stop stop-color="#6366F1"/>
<stop offset="1" stop-color="#22D3EE"/>
</linearGradient>
<linearGradient id="paint42_linear_12210_39479" x1="17.8184" y1="13.7093" x2="9.84244" y2="28.7228" gradientUnits="userSpaceOnUse">
<stop stop-color="#D1D5DB"/>
<stop offset="0.43393" stop-color="#F9FAFB"/>
</linearGradient>
<linearGradient id="paint43_linear_12210_39479" x1="18.419" y1="12.5882" x2="24.3875" y2="3.38707" gradientUnits="userSpaceOnUse">
<stop stop-color="#D1D5DB"/>
<stop offset="0.556468" stop-color="#F9FAFB"/>
</linearGradient>
</defs>
</svg>
