<svg width="17" height="18" viewBox="0 0 17 18" fill="none" xmlns="http://www.w3.org/2000/svg">
<g clip-path="url(#clip0_470_35757)">
<path d="M8.97553 3.58156L9.70833 5.83688C9.90914 6.45492 10.4851 6.87336 11.1349 6.87336L13.5063 6.87336C13.9907 6.87336 14.192 7.49316 13.8002 7.77786L11.8817 9.17173C11.356 9.5537 11.136 10.2307 11.3368 10.8488L12.0696 13.1041C12.2193 13.5648 11.692 13.9478 11.3002 13.6631L9.38168 12.2693C8.85595 11.8873 8.14405 11.8873 7.61832 12.2693L5.69983 13.6631C5.30797 13.9478 4.78073 13.5648 4.93041 13.1041L5.66321 10.8488C5.86402 10.2307 5.64403 9.5537 5.1183 9.17173L3.19981 7.77786C2.80795 7.49316 3.00934 6.87336 3.4937 6.87336L5.86509 6.87336C6.51493 6.87336 7.09086 6.45491 7.29167 5.83688L8.02447 3.58156C8.17415 3.1209 8.82585 3.1209 8.97553 3.58156Z" fill="#22D3EE" stroke="#22D3EE"/>
</g>
<defs>
<clipPath id="clip0_470_35757">
<rect width="17" height="17" fill="white" transform="translate(0 0.5)"/>
</clipPath>
</defs>
</svg>
