<svg width="13" height="13" viewBox="0 0 13 13" fill="none" xmlns="http://www.w3.org/2000/svg">
<g clip-path="url(#clip0_12088_26012)">
<path d="M2.0293 4.5756C2.0293 4.01238 2.48587 3.55581 3.04908 3.55581H10.1876C10.7508 3.55581 11.2074 4.01238 11.2074 4.5756V9.67453C11.2074 10.2377 10.7508 10.6943 10.1876 10.6943H3.04908C2.48587 10.6943 2.0293 10.2377 2.0293 9.67453V4.5756Z" fill="white"/>
<path d="M11.2074 7.25531C9.79024 7.82895 8.24118 8.14484 6.61834 8.14484C4.9955 8.14484 3.44644 7.82895 2.0293 7.25531M8.65791 3.55581V2.53602C8.65791 1.97281 8.20134 1.51624 7.63813 1.51624H5.59855C5.03534 1.51624 4.57876 1.97281 4.57876 2.53602V3.55581M6.61834 6.61517H6.62344M3.04908 10.6943H10.1876C10.7508 10.6943 11.2074 10.2377 11.2074 9.67453V4.5756C11.2074 4.01238 10.7508 3.55581 10.1876 3.55581H3.04908C2.48587 3.55581 2.0293 4.01238 2.0293 4.5756V9.67453C2.0293 10.2377 2.48587 10.6943 3.04908 10.6943Z" stroke="#6B7280" stroke-width="1.22374" stroke-linecap="round" stroke-linejoin="round"/>
</g>
<defs>
<clipPath id="clip0_12088_26012">
<rect width="12.2374" height="12.2374" fill="white" transform="translate(0.5 0.49646)"/>
</clipPath>
</defs>
</svg>
