<svg width="20" height="20" viewBox="0 0 20 20" fill="none" xmlns="http://www.w3.org/2000/svg">
<path d="M14.1667 6.66659H15.8333C16.7538 6.66659 17.5 7.41278 17.5 8.33325V13.3333C17.5 14.2537 16.7538 14.9999 15.8333 14.9999H14.1667V18.3333L10.8333 14.9999H7.5C7.03976 14.9999 6.6231 14.8134 6.32149 14.5118M6.32149 14.5118L9.16667 11.6666H12.5C13.4205 11.6666 14.1667 10.9204 14.1667 9.99992V4.99992C14.1667 4.07944 13.4205 3.33325 12.5 3.33325H4.16667C3.24619 3.33325 2.5 4.07944 2.5 4.99992V9.99992C2.5 10.9204 3.24619 11.6666 4.16667 11.6666H5.83333V14.9999L6.32149 14.5118Z" stroke="#6B7280" stroke-width="2" stroke-linecap="round" stroke-linejoin="round"/>
</svg>
