<svg width="14" height="14" viewBox="0 0 14 14" fill="none" xmlns="http://www.w3.org/2000/svg">
<path fill-rule="evenodd" clip-rule="evenodd" d="M6.99961 13.3996C10.5342 13.3996 13.3996 10.5342 13.3996 6.99961C13.3996 3.46499 10.5342 0.599609 6.99961 0.599609C3.46499 0.599609 0.599609 3.46499 0.599609 6.99961C0.599609 10.5342 3.46499 13.3996 6.99961 13.3996ZM9.96529 5.96529C10.2777 5.65288 10.2777 5.14634 9.96529 4.83392C9.65287 4.5215 9.14634 4.5215 8.83392 4.83392L6.19961 7.46824L5.16529 6.43392C4.85287 6.1215 4.34634 6.1215 4.03392 6.43392C3.7215 6.74634 3.7215 7.25287 4.03392 7.56529L5.63392 9.16529C5.94634 9.47771 6.45287 9.47771 6.76529 9.16529L9.96529 5.96529Z" fill="white"/>
</svg>
