<svg width="20" height="21" viewBox="0 0 20 21" fill="none" xmlns="http://www.w3.org/2000/svg">
<path d="M5.83317 17.7407H14.1665C15.087 17.7407 15.8332 16.9945 15.8332 16.0741V8.0859C15.8332 7.86489 15.7454 7.65293 15.5891 7.49665L11.0772 2.9848C10.921 2.82852 10.709 2.74072 10.488 2.74072H5.83317C4.9127 2.74072 4.1665 3.48691 4.1665 4.40739V16.0741C4.1665 16.9945 4.9127 17.7407 5.83317 17.7407Z" fill="white"/>
<path d="M9.99984 8.57406V13.5741M9.99984 13.5741L7.49984 11.0741M9.99984 13.5741L12.4998 11.0741M14.1665 17.7407H5.83317C4.9127 17.7407 4.1665 16.9945 4.1665 16.0741V4.40739C4.1665 3.48691 4.9127 2.74072 5.83317 2.74072H10.488C10.709 2.74072 10.921 2.82852 11.0772 2.9848L15.5891 7.49665C15.7454 7.65293 15.8332 7.86489 15.8332 8.0859V16.0741C15.8332 16.9945 15.087 17.7407 14.1665 17.7407Z" stroke="#6B7280" stroke-width="2" stroke-linecap="round" stroke-linejoin="round"/>
</svg>
