<svg width="24" height="23" viewBox="0 0 24 23" fill="none" xmlns="http://www.w3.org/2000/svg">
<path d="M11.9999 7.60918L8.22374 0.945026C8.3491 0.817378 8.49335 0.733647 8.63759 0.677368C7.52412 1.04386 7.01316 2.29433 7.01316 2.29433L0.11461 14.4655C0.0175459 14.8471 -0.00941522 15.1916 0.00271783 15.495H7.5322L11.9999 7.60918Z" fill="#34A853"/>
<path d="M12.0001 7.60918L16.4678 15.495H23.9973C24.0094 15.1916 23.9825 14.8471 23.8854 14.4655L16.9869 2.29433C16.9869 2.29433 16.4746 1.04386 15.3623 0.677368C15.5053 0.733647 15.6508 0.817378 15.7762 0.945026L12.0001 7.60918Z" fill="#FBBC05"/>
<path d="M11.9999 7.60996L15.7761 0.945847C15.6508 0.818188 15.5051 0.734457 15.3623 0.678178C15.1978 0.624648 15.0212 0.588958 14.8297 0.579346H14.6302H9.36974H9.17018C8.98011 0.587584 8.80215 0.623273 8.63761 0.678178C8.49478 0.734457 8.34912 0.818188 8.22375 0.945847L11.9999 7.60996Z" fill="#188038"/>
<path d="M7.53329 15.4951L3.80027 22.0838C3.80027 22.0838 3.67624 22.0234 3.50772 21.8985C4.03755 22.3062 4.55254 22.3926 4.55254 22.3926H19.2138C20.0226 22.3926 20.1912 22.0838 20.1912 22.0838C20.1938 22.0824 20.1952 22.081 20.1978 22.0797L16.4676 15.4951H7.53329Z" fill="#4285F4"/>
<path d="M7.53374 15.4951H0.00427246C0.0420246 16.3901 0.430293 16.9131 0.430293 16.9131L0.713402 17.4044C0.733631 17.4334 0.745763 17.4498 0.745763 17.4498L1.36187 18.5314L2.74507 20.9391C2.78551 21.0365 2.8327 21.1256 2.88259 21.2107C2.90145 21.2397 2.91898 21.2712 2.93921 21.2987C2.9446 21.3069 2.94999 21.3152 2.95539 21.3233C3.1266 21.5649 3.31804 21.7516 3.50947 21.8985C3.67799 22.0248 3.80203 22.0838 3.80203 22.0838L7.53374 15.4951Z" fill="#1967D2"/>
<path d="M16.4678 15.4951H23.9972C23.9594 16.3901 23.5712 16.9131 23.5712 16.9131L23.2881 17.4044C23.2679 17.4334 23.2558 17.4498 23.2558 17.4498L22.6396 18.5314L21.2564 20.9391C21.216 21.0365 21.1688 21.1256 21.119 21.2107C21.1001 21.2397 21.0825 21.2712 21.0623 21.2987C21.0569 21.3069 21.0515 21.3152 21.0461 21.3233C20.8749 21.5649 20.6835 21.7516 20.492 21.8985C20.3235 22.0248 20.1995 22.0838 20.1995 22.0838L16.4678 15.4951Z" fill="#EA4335"/>
</svg>
