<svg width="4" height="16" viewBox="0 0 4 16" fill="none" xmlns="http://www.w3.org/2000/svg">
<path d="M2.00065 2.16634L2.00065 2.17467M2.00065 7.99967L2.00065 8.00801M2.00065 13.833L2.00065 13.8413M2.00065 2.99967C1.54041 2.99967 1.16732 2.62658 1.16732 2.16634C1.16732 1.7061 1.54041 1.33301 2.00065 1.33301C2.46089 1.33301 2.83398 1.7061 2.83398 2.16634C2.83398 2.62658 2.46089 2.99967 2.00065 2.99967ZM2.00065 8.83301C1.54041 8.83301 1.16732 8.45991 1.16732 7.99967C1.16732 7.53944 1.54041 7.16634 2.00065 7.16634C2.46089 7.16634 2.83398 7.53944 2.83398 7.99967C2.83398 8.45991 2.46089 8.83301 2.00065 8.83301ZM2.00065 14.6663C1.54041 14.6663 1.16732 14.2932 1.16732 13.833C1.16732 13.3728 1.54041 12.9997 2.00065 12.9997C2.46089 12.9997 2.83398 13.3728 2.83398 13.833C2.83398 14.2932 2.46089 14.6663 2.00065 14.6663Z" stroke="#9CA3AF" stroke-width="2" stroke-linecap="round" stroke-linejoin="round"/>
</svg>
