<svg width="20" height="18" viewBox="0 0 20 18" fill="none" xmlns="http://www.w3.org/2000/svg">
<path d="M8.34426 1.96362C9.07063 0.672283 10.9299 0.672282 11.6562 1.96362L18.3526 13.8683C19.065 15.1348 18.1498 16.6998 16.6966 16.6998H3.30388C1.85071 16.6998 0.935458 15.1348 1.64789 13.8683L8.34426 1.96362ZM10.0001 15.2999C10.939 15.2999 11.7001 14.5388 11.7001 13.5999C11.7001 12.661 10.939 11.8999 10.0001 11.8999C9.06126 11.8999 8.30015 12.661 8.30015 13.5999C8.30015 14.5388 9.06126 15.2999 10.0001 15.2999ZM10.0001 3.4999C9.06126 3.4999 8.30015 4.26102 8.30015 5.1999V8.7999C8.30015 9.73879 9.06126 10.4999 10.0001 10.4999C10.939 10.4999 11.7001 9.73879 11.7001 8.7999V5.1999C11.7001 4.26102 10.939 3.4999 10.0001 3.4999Z" fill="#FBBF24" stroke="#FBBF24"/>
</svg>
