<svg width="14" height="18" viewBox="0 0 14 18" fill="none" xmlns="http://www.w3.org/2000/svg">
<path d="M2.83341 16.5H11.1667C12.0872 16.5 12.8334 15.7538 12.8334 14.8333V6.84518C12.8334 6.62416 12.7456 6.4122 12.5893 6.25592L8.07749 1.74408C7.92121 1.5878 7.70925 1.5 7.48824 1.5H2.83341C1.91294 1.5 1.16675 2.24619 1.16675 3.16667V14.8333C1.16675 15.7538 1.91294 16.5 2.83341 16.5Z" fill="white"/>
<path d="M7.00008 7.33333V12.3333M7.00008 12.3333L4.50008 9.83333M7.00008 12.3333L9.50008 9.83333M11.1667 16.5H2.83341C1.91294 16.5 1.16675 15.7538 1.16675 14.8333V3.16667C1.16675 2.24619 1.91294 1.5 2.83341 1.5H7.48824C7.70925 1.5 7.92121 1.5878 8.07749 1.74408L12.5893 6.25592C12.7456 6.4122 12.8334 6.62416 12.8334 6.84518V14.8333C12.8334 15.7538 12.0872 16.5 11.1667 16.5Z" stroke="#6B7280" stroke-width="2" stroke-linecap="round" stroke-linejoin="round"/>
</svg>
