<svg width="20" height="21" viewBox="0 0 20 21" fill="none" xmlns="http://www.w3.org/2000/svg">
<path d="M12.4998 10.2407C12.4998 11.6215 11.3805 12.7407 9.9998 12.7407C8.61908 12.7407 7.4998 11.6215 7.4998 10.2407C7.4998 8.86003 8.61908 7.74074 9.9998 7.74074C11.3805 7.74074 12.4998 8.86003 12.4998 10.2407Z" fill="white"/>
<path d="M2.04834 10.2407C3.11023 6.85981 6.2688 4.40741 10.0002 4.40741C13.7315 4.40741 16.8901 6.85984 17.952 10.2408C16.8901 13.6217 13.7315 16.0741 10.0002 16.0741C6.2688 16.0741 3.11022 13.6217 2.04834 10.2407Z" fill="white"/>
<path d="M12.4998 10.2407C12.4998 11.6215 11.3805 12.7407 9.9998 12.7407C8.61908 12.7407 7.4998 11.6215 7.4998 10.2407C7.4998 8.86003 8.61908 7.74074 9.9998 7.74074C11.3805 7.74074 12.4998 8.86003 12.4998 10.2407Z" stroke="#6B7280" stroke-width="2" stroke-linecap="round" stroke-linejoin="round"/>
<path d="M2.04834 10.2407C3.11023 6.85981 6.2688 4.40741 10.0002 4.40741C13.7315 4.40741 16.8901 6.85984 17.952 10.2408C16.8901 13.6217 13.7315 16.0741 10.0002 16.0741C6.2688 16.0741 3.11022 13.6217 2.04834 10.2407Z" stroke="#6B7280" stroke-width="2" stroke-linecap="round" stroke-linejoin="round"/>
</svg>
