<svg width="16" height="12" viewBox="0 0 16 12" fill="none" xmlns="http://www.w3.org/2000/svg">
<path d="M7.99998 7.5999C8.88364 7.5999 9.59998 6.88356 9.59998 5.9999C9.59998 5.11625 8.88364 4.3999 7.99998 4.3999C7.11633 4.3999 6.39999 5.11625 6.39999 5.9999C6.39999 6.88356 7.11633 7.5999 7.99998 7.5999Z" fill="white"/>
<path fill-rule="evenodd" clip-rule="evenodd" d="M0.366211 5.99993C1.38561 2.75423 4.41784 0.399902 7.99995 0.399902C11.582 0.399902 14.6143 2.75421 15.6337 5.99987C14.6143 9.24557 11.582 11.5999 7.99994 11.5999C4.41784 11.5999 1.38563 9.2456 0.366211 5.99993ZM11.2 5.9999C11.2 7.76721 9.76729 9.1999 7.99998 9.1999C6.23268 9.1999 4.79999 7.76721 4.79999 5.9999C4.79999 4.23259 6.23268 2.7999 7.99998 2.7999C9.76729 2.7999 11.2 4.23259 11.2 5.9999Z" fill="white"/>
</svg>
