<svg width="14" height="18" viewBox="0 0 14 18" fill="none" xmlns="http://www.w3.org/2000/svg">
<path d="M4.50002 3.16667C4.50002 2.24619 5.24621 1.5 6.16669 1.5H7.83335C8.75383 1.5 9.50002 2.24619 9.50002 3.16667C9.50002 4.08714 8.75383 4.83333 7.83335 4.83333H6.16669C5.24621 4.83333 4.50002 4.08714 4.50002 3.16667Z" fill="white"/>
<path d="M5.20713 9.95956C4.8166 9.56904 4.18344 9.56904 3.79291 9.95956C3.40239 10.3501 3.40239 10.9832 3.79291 11.3738L5.20713 9.95956ZM6.16669 12.3333L5.45958 13.0404C5.8501 13.431 6.48327 13.431 6.87379 13.0404L6.16669 12.3333ZM10.2071 9.70711C10.5977 9.31658 10.5977 8.68342 10.2071 8.29289C9.8166 7.90237 9.18344 7.90237 8.79291 8.29289L10.2071 9.70711ZM11.8334 4.83333V14.8333H13.8334V4.83333H11.8334ZM11.1667 15.5H2.83335V17.5H11.1667V15.5ZM2.16669 14.8333V4.83333H0.166687V14.8333H2.16669ZM2.83335 4.16667H4.50002V2.16667H2.83335V4.16667ZM9.50002 4.16667H11.1667V2.16667H9.50002V4.16667ZM2.83335 15.5C2.46516 15.5 2.16669 15.2015 2.16669 14.8333H0.166687C0.166687 16.3061 1.36059 17.5 2.83335 17.5V15.5ZM11.8334 14.8333C11.8334 15.2015 11.5349 15.5 11.1667 15.5V17.5C12.6394 17.5 13.8334 16.3061 13.8334 14.8333H11.8334ZM13.8334 4.83333C13.8334 3.36057 12.6394 2.16667 11.1667 2.16667V4.16667C11.5349 4.16667 11.8334 4.46514 11.8334 4.83333H13.8334ZM2.16669 4.83333C2.16669 4.46514 2.46516 4.16667 2.83335 4.16667V2.16667C1.36059 2.16667 0.166687 3.36057 0.166687 4.83333H2.16669ZM3.79291 11.3738L5.45958 13.0404L6.87379 11.6262L5.20713 9.95956L3.79291 11.3738ZM6.87379 13.0404L10.2071 9.70711L8.79291 8.29289L5.45958 11.6262L6.87379 13.0404ZM6.16669 2.5H7.83335V0.5H6.16669V2.5ZM7.83335 3.83333H6.16669V5.83333H7.83335V3.83333ZM6.16669 3.83333C5.7985 3.83333 5.50002 3.53486 5.50002 3.16667H3.50002C3.50002 4.63943 4.69393 5.83333 6.16669 5.83333V3.83333ZM8.50002 3.16667C8.50002 3.53486 8.20154 3.83333 7.83335 3.83333V5.83333C9.30611 5.83333 10.5 4.63943 10.5 3.16667H8.50002ZM7.83335 2.5C8.20154 2.5 8.50002 2.79848 8.50002 3.16667H10.5C10.5 1.69391 9.30611 0.5 7.83335 0.5V2.5ZM6.16669 0.5C4.69393 0.5 3.50002 1.69391 3.50002 3.16667H5.50002C5.50002 2.79848 5.7985 2.5 6.16669 2.5V0.5Z" fill="#6B7280"/>
</svg>
