<svg width="14" height="18" viewBox="0 0 14 18" fill="none" xmlns="http://www.w3.org/2000/svg">
<path d="M2.83332 16.5H11.1667C12.0871 16.5 12.8333 15.7538 12.8333 14.8333V6.84518C12.8333 6.62416 12.7455 6.4122 12.5892 6.25592L8.0774 1.74408C7.92112 1.5878 7.70916 1.5 7.48815 1.5H2.83332C1.91285 1.5 1.16666 2.24619 1.16666 3.16667V14.8333C1.16666 15.7538 1.91285 16.5 2.83332 16.5Z" fill="white"/>
<path d="M4.49999 9H9.49999M4.49999 12.3333H9.49999M11.1667 16.5H2.83332C1.91285 16.5 1.16666 15.7538 1.16666 14.8333V3.16667C1.16666 2.24619 1.91285 1.5 2.83332 1.5H7.48815C7.70916 1.5 7.92112 1.5878 8.0774 1.74408L12.5892 6.25592C12.7455 6.4122 12.8333 6.62416 12.8333 6.84518V14.8333C12.8333 15.7538 12.0871 16.5 11.1667 16.5Z" stroke="#6B7280" stroke-width="2" stroke-linecap="round" stroke-linejoin="round"/>
</svg>
