<svg width="24" height="24" viewBox="0 0 24 24" fill="none" xmlns="http://www.w3.org/2000/svg">
<path d="M18 22H6C5.46957 22 4.96086 21.7893 4.58579 21.4142C4.21071 21.0391 4 20.5304 4 20V3.99999C4 3.46956 4.21071 2.96085 4.58579 2.58578C4.96086 2.21071 5.46957 1.99999 6 1.99999H13C13.009 1.99882 13.018 1.99882 13.027 1.99999H13.033C13.0424 2.00295 13.0522 2.00496 13.062 2.00599C13.15 2.01199 13.237 2.02899 13.321 2.05699H13.363C13.3815 2.06991 13.3988 2.08429 13.415 2.09999C13.5239 2.14844 13.6232 2.2162 13.708 2.29999L19.708 8.29999C19.7918 8.38478 19.8596 8.48405 19.908 8.593C19.9167 8.61462 19.9244 8.63664 19.931 8.659L19.941 8.687C19.969 8.77 19.985 8.85699 19.99 8.94499C19.9909 8.95496 19.9932 8.96473 19.997 8.97399V8.97999C19.9986 8.98656 19.9996 8.99325 20 8.99999V20C20 20.5304 19.7893 21.0391 19.4142 21.4142C19.0391 21.7893 18.5304 22 18 22ZM15.461 14C15.2336 13.9873 15.0065 14.0304 14.7995 14.1253C14.5925 14.2203 14.4117 14.3644 14.273 14.545C13.9754 15.0038 13.8331 15.5461 13.867 16.092V16.968C13.838 17.508 13.995 18.042 14.31 18.482C14.61 18.832 15.056 19.024 15.517 19C15.803 19.003 16.087 18.95 16.353 18.846H16.361H16.355C16.3643 18.8405 16.374 18.8358 16.384 18.832H16.389L16.405 18.824L16.426 18.814C16.644 18.714 16.838 18.567 16.994 18.384V16.373H15.45V17.115H16.087V18.008L16.007 18.068C15.8771 18.1507 15.7249 18.1915 15.571 18.185C15.4522 18.1944 15.333 18.1714 15.2262 18.1186C15.1193 18.0658 15.0287 17.9851 14.964 17.885C14.8215 17.5828 14.7585 17.2493 14.781 16.916V16.033C14.7637 15.7153 14.823 15.398 14.954 15.108C15.0068 15.014 15.0849 14.9368 15.1795 14.8851C15.2742 14.8335 15.3814 14.8095 15.489 14.816C15.5714 14.8091 15.6543 14.8209 15.7315 14.8506C15.8088 14.8802 15.8783 14.9268 15.935 14.987C16.055 15.177 16.117 15.395 16.115 15.619H17C17.0018 15.1722 16.8488 14.7387 16.567 14.392C16.27 14.112 15.867 13.971 15.461 14ZM7 17.5C6.979 17.896 7.1 18.287 7.344 18.6C7.588 18.872 7.942 19.019 8.307 19C8.669 19.009 9.016 18.851 9.248 18.573C9.50316 18.2506 9.63283 17.8467 9.613 17.436V14.067H8.7V17.389C8.7 17.917 8.567 18.189 8.3 18.189C8.033 18.189 7.907 17.957 7.907 17.5H7ZM10.327 14.071V18.937H11.237V17.222H11.844C12.249 17.244 12.646 17.094 12.934 16.808C13.2077 16.4973 13.3485 16.0915 13.326 15.678C13.3437 15.2535 13.2009 14.8379 12.926 14.514C12.656 14.214 12.265 14.05 11.861 14.067L10.327 14.071ZM13 3.99999V8.99999H18L13 3.99999ZM11.862 16.4H11.237V14.885H11.872C12.032 14.885 12.179 14.969 12.262 15.106C12.367 15.28 12.418 15.481 12.408 15.684C12.4205 15.8731 12.3706 16.061 12.266 16.219C12.218 16.2792 12.1562 16.327 12.086 16.3585C12.0157 16.39 11.9389 16.4042 11.862 16.4Z" fill="#6B7280"/>
</svg>
