<svg width="21" height="19" viewBox="0 0 21 19" fill="none" xmlns="http://www.w3.org/2000/svg">
<path d="M7.25394 14.6461L7.10749 14.4996H6.90039H3.30039C2.25105 14.4996 1.40039 13.649 1.40039 12.5996V2.99961C1.40039 1.95027 2.25105 1.09961 3.30039 1.09961H17.7004C18.7497 1.09961 19.6004 1.95027 19.6004 2.99961V12.5996C19.6004 13.649 18.7497 14.4996 17.7004 14.4996H14.1004H13.8933L13.7468 14.6461L10.5004 17.8925L7.25394 14.6461ZM5.70039 3.69961C4.7615 3.69961 4.00039 4.46073 4.00039 5.39961C4.00039 6.33849 4.7615 7.09961 5.70039 7.09961H15.3004C16.2393 7.09961 17.0004 6.33849 17.0004 5.39961C17.0004 4.46073 16.2393 3.69961 15.3004 3.69961H5.70039ZM5.70039 8.49961C4.7615 8.49961 4.00039 9.26073 4.00039 10.1996C4.00039 11.1385 4.7615 11.8996 5.70039 11.8996H9.30039C10.2393 11.8996 11.0004 11.1385 11.0004 10.1996C11.0004 9.26073 10.2393 8.49961 9.30039 8.49961H5.70039Z" fill="white" stroke="white"/>
</svg>
