<svg width="14" height="17" viewBox="0 0 14 17" fill="none" xmlns="http://www.w3.org/2000/svg">
<path d="M1.5 2C1.5 0.895432 2.39543 0 3.5 0H8.08579C8.61622 0 9.12493 0.210714 9.5 0.585786L12.9142 4C13.2893 4.37507 13.5 4.88378 13.5 5.41421V14C13.5 15.1046 12.6046 16 11.5 16H9.97221C10.9223 14.9385 11.5 13.5367 11.5 12C11.5 8.68629 8.81371 6 5.5 6C3.96329 6 2.56151 6.57771 1.5 7.52779V2Z" fill="white"/>
<path fill-rule="evenodd" clip-rule="evenodd" d="M5.5 8C3.29086 8 1.5 9.79086 1.5 12C1.5 12.7414 1.70229 13.4364 2.05397 14.0318L0.792893 15.2929C0.402369 15.6834 0.402369 16.3166 0.792893 16.7071C1.18342 17.0976 1.81658 17.0976 2.20711 16.7071L3.46818 15.446C4.06362 15.7977 4.75862 16 5.5 16C7.70914 16 9.5 14.2091 9.5 12C9.5 9.79086 7.70914 8 5.5 8ZM3.5 12C3.5 10.8954 4.39543 10 5.5 10C6.60457 10 7.5 10.8954 7.5 12C7.5 13.1046 6.60457 14 5.5 14C4.94744 14 4.44881 13.7772 4.08579 13.4142C3.72276 13.0512 3.5 12.5526 3.5 12Z" fill="white"/>
</svg>
