<svg width="20" height="20" viewBox="0 0 20 20" fill="none" xmlns="http://www.w3.org/2000/svg">
<path fill-rule="evenodd" clip-rule="evenodd" d="M19.6 9.9999C19.6 15.3018 15.3019 19.5999 9.99999 19.5999C4.69806 19.5999 0.399994 15.3018 0.399994 9.9999C0.399994 4.69797 4.69806 0.399902 9.99999 0.399902C15.3019 0.399902 19.6 4.69797 19.6 9.9999ZM6.39999 7.5999C6.39999 6.93716 6.93725 6.3999 7.59999 6.3999C8.26274 6.3999 8.79999 6.93716 8.79999 7.5999V12.3999C8.79999 13.0626 8.26274 13.5999 7.59999 13.5999C6.93725 13.5999 6.39999 13.0626 6.39999 12.3999V7.5999ZM12.4 6.3999C11.7373 6.3999 11.2 6.93716 11.2 7.5999V12.3999C11.2 13.0626 11.7373 13.5999 12.4 13.5999C13.0627 13.5999 13.6 13.0626 13.6 12.3999V7.5999C13.6 6.93716 13.0627 6.3999 12.4 6.3999Z" fill="#06B6D4"/>
</svg>
