<svg width="16" height="20" viewBox="0 0 16 20" fill="none" xmlns="http://www.w3.org/2000/svg">
<path d="M14 20H2C1.46957 20 0.960859 19.7893 0.585786 19.4142C0.210714 19.0391 0 18.5304 0 18V2C0 1.46957 0.210714 0.960858 0.585786 0.585785C0.960859 0.210712 1.46957 -1.27073e-06 2 -1.27073e-06H9C9.00896 -0.0011745 9.01804 -0.0011745 9.027 -1.27073e-06H9.033C9.04245 0.0029504 9.05216 0.00496024 9.062 0.00599877C9.15 0.0119988 9.237 0.0289987 9.321 0.0569987H9.363C9.38146 0.0699176 9.39884 0.0842971 9.415 0.0999986C9.52393 0.148442 9.6232 0.2162 9.708 0.299999L15.708 6.3C15.7918 6.38478 15.8596 6.48405 15.908 6.593C15.9167 6.61462 15.9244 6.63665 15.931 6.659L15.941 6.687C15.969 6.77 15.985 6.857 15.99 6.945C15.9909 6.95496 15.9932 6.96474 15.997 6.974V6.98C15.9986 6.98656 15.9996 6.99326 16 7V18C16 18.5304 15.7893 19.0391 15.4142 19.4142C15.0391 19.7893 14.5304 20 14 20ZM10.424 12V17H11.364V14.96H12.824V14.122H11.364V12.841H13V12H10.424ZM6.724 12V17H7.93C8.17979 17.0123 8.42916 16.9684 8.6597 16.8715C8.89025 16.7746 9.09608 16.6271 9.262 16.44C9.6069 15.9999 9.77967 15.4492 9.748 14.891V14.081C9.77126 13.5286 9.59364 12.9865 9.248 12.555C8.923 12.185 8.448 11.981 7.955 12H6.724ZM3 12V17H3.94V15.241H4.566C4.984 15.264 5.392 15.109 5.69 14.815C5.97389 14.4973 6.12119 14.0805 6.1 13.655C6.11856 13.2192 5.97135 12.7926 5.688 12.461C5.54958 12.3075 5.37889 12.1866 5.18818 12.1068C4.99747 12.0271 4.79148 11.9907 4.585 12H3ZM9 2V7H14L9 2ZM7.946 16.162H7.664V12.841H8.006C8.12552 12.834 8.24489 12.857 8.3532 12.908C8.46152 12.959 8.55531 13.0364 8.626 13.133C8.773 13.436 8.836 13.773 8.808 14.109V14.978C8.83 15.298 8.761 15.618 8.608 15.899C8.52726 15.9932 8.42481 16.0664 8.30948 16.1123C8.19415 16.1581 8.0694 16.1751 7.946 16.162ZM4.585 14.4H3.939V12.841H4.594C4.67444 12.8419 4.75334 12.8632 4.82331 12.9029C4.89327 12.9426 4.952 12.9994 4.994 13.068C5.102 13.247 5.154 13.453 5.144 13.662C5.15654 13.8565 5.1049 14.0497 4.997 14.212C4.94797 14.2735 4.8851 14.3226 4.81351 14.3553C4.74191 14.388 4.66362 14.4033 4.585 14.4Z" fill="#EF4444"/>
</svg>
