<svg width="24" height="25" viewBox="0 0 24 25" fill="none" xmlns="http://www.w3.org/2000/svg">
<path d="M18 22.2407H6C5.46957 22.2407 4.96086 22.03 4.58579 21.655C4.21071 21.2799 4 20.7712 4 20.2407V4.24075C4 3.71032 4.21071 3.20161 4.58579 2.82653C4.96086 2.45146 5.46957 2.24075 6 2.24075H13C13.009 2.23957 13.018 2.23957 13.027 2.24075H13.033C13.0424 2.2437 13.0522 2.24571 13.062 2.24675C13.15 2.25275 13.237 2.26975 13.321 2.29775H13.363C13.3815 2.31067 13.3988 2.32505 13.415 2.34075C13.5239 2.38919 13.6232 2.45695 13.708 2.54075L19.708 8.54075C19.7918 8.62553 19.8596 8.7248 19.908 8.83375C19.9167 8.85537 19.9244 8.8774 19.931 8.89975L19.941 8.92775C19.969 9.01075 19.985 9.09775 19.99 9.18575C19.9909 9.19571 19.9932 9.20549 19.997 9.21475V9.22075C19.9986 9.22731 19.9996 9.234 20 9.24075V20.2407C20 20.7712 19.7893 21.2799 19.4142 21.655C19.0391 22.03 18.5304 22.2407 18 22.2407ZM14.424 14.2407V19.2407H15.364V17.2007H16.824V16.3627H15.364V15.0817H17V14.2407H14.424ZM10.724 14.2407V19.2407H11.93C12.1798 19.2531 12.4292 19.2092 12.6597 19.1123C12.8902 19.0153 13.0961 18.8679 13.262 18.6807C13.6069 18.2407 13.7797 17.69 13.748 17.1317V16.3217C13.7713 15.7694 13.5936 15.2273 13.248 14.7957C12.923 14.4257 12.448 14.2217 11.955 14.2407H10.724ZM7 14.2407V19.2407H7.94V17.4817H8.566C8.984 17.5047 9.392 17.3497 9.69 17.0557C9.97389 16.738 10.1212 16.3213 10.1 15.8957C10.1186 15.46 9.97135 15.0333 9.688 14.7017C9.54958 14.5483 9.37889 14.4273 9.18818 14.3476C8.99747 14.2679 8.79148 14.2314 8.585 14.2407H7ZM13 4.24075V9.24075H18L13 4.24075ZM11.946 18.4027H11.664V15.0817H12.006C12.1255 15.0747 12.2449 15.0977 12.3532 15.1488C12.4615 15.1998 12.5553 15.2771 12.626 15.3737C12.773 15.6767 12.836 16.0137 12.808 16.3497V17.2187C12.83 17.5387 12.761 17.8587 12.608 18.1397C12.5273 18.234 12.4248 18.3072 12.3095 18.353C12.1941 18.3988 12.0694 18.4159 11.946 18.4027ZM8.585 16.6407H7.939V15.0817H8.594C8.67444 15.0826 8.75334 15.1039 8.82331 15.1436C8.89327 15.1833 8.952 15.2401 8.994 15.3087C9.102 15.4877 9.154 15.6937 9.144 15.9027C9.15654 16.0972 9.1049 16.2905 8.997 16.4527C8.94797 16.5143 8.8851 16.5634 8.81351 16.5961C8.74191 16.6287 8.66362 16.644 8.585 16.6407Z" fill="#EF4444"/>
</svg>
