<svg width="18" height="18" viewBox="0 0 18 18" fill="none" xmlns="http://www.w3.org/2000/svg">
<path d="M16.2745 2.11019L16.9816 1.40309L16.9816 1.40309L16.2745 2.11019ZM4.80143 16.5296V17.5296C5.06665 17.5296 5.321 17.4242 5.50854 17.2367L4.80143 16.5296ZM1.88477 16.5296H0.884766C0.884766 17.0819 1.33248 17.5296 1.88477 17.5296L1.88477 16.5296ZM1.88477 13.5537L1.17766 12.8466C0.990122 13.0341 0.884766 13.2885 0.884766 13.5537H1.88477ZM14.0354 2.8173C14.4584 2.39423 15.1444 2.39423 15.5674 2.8173L16.9816 1.40309C15.7775 0.198971 13.8253 0.198971 12.6211 1.40309L14.0354 2.8173ZM15.5674 2.8173C15.9905 3.24037 15.9905 3.9263 15.5674 4.34937L16.9816 5.76358C18.1857 4.55946 18.1857 2.6072 16.9816 1.40309L15.5674 2.8173ZM15.5674 4.34937L4.09433 15.8225L5.50854 17.2367L16.9816 5.76358L15.5674 4.34937ZM4.80143 15.5296H1.88477V17.5296H4.80143V15.5296ZM12.6211 1.40309L1.17766 12.8466L2.59187 14.2608L14.0354 2.8173L12.6211 1.40309ZM0.884766 13.5537V16.5296H2.88477V13.5537H0.884766ZM11.3711 4.0673L14.3174 7.01358L15.7316 5.59937L12.7854 2.65309L11.3711 4.0673Z" fill="#6B7280"/>
</svg>
