<svg width="18" height="18" viewBox="0 0 18 18" fill="none" xmlns="http://www.w3.org/2000/svg">
<path d="M1.21484 3.16667C1.21484 2.24619 1.96104 1.5 2.88151 1.5H5.61421C5.9729 1.5 6.29135 1.72953 6.40478 2.06981L7.65296 5.81434C7.7841 6.20777 7.60599 6.63776 7.23507 6.82322L5.35402 7.76375C6.27255 9.80101 7.91383 11.4423 9.9511 12.3608L10.8916 10.4798C11.0771 10.1088 11.5071 9.93074 11.9005 10.0619L15.645 11.3101C15.9853 11.4235 16.2148 11.7419 16.2148 12.1006V14.8333C16.2148 15.7538 15.4687 16.5 14.5482 16.5H13.7148C6.81128 16.5 1.21484 10.9036 1.21484 4V3.16667Z" fill="#06B6D4" stroke="white" stroke-width="2" stroke-linecap="round" stroke-linejoin="round"/>
</svg>
