<svg width="20" height="20" viewBox="0 0 20 20" fill="none" xmlns="http://www.w3.org/2000/svg">
<path fill-rule="evenodd" clip-rule="evenodd" d="M9.99999 19.5999C15.3019 19.5999 19.6 15.3018 19.6 9.9999C19.6 4.69797 15.3019 0.399902 9.99999 0.399902C4.69806 0.399902 0.399994 4.69797 0.399994 9.9999C0.399994 15.3018 4.69806 19.5999 9.99999 19.5999ZM9.46563 6.60144C9.09741 6.35596 8.62395 6.33307 8.23376 6.5419C7.84358 6.75072 7.59999 7.15735 7.59999 7.5999V12.3999C7.59999 12.8425 7.84358 13.2491 8.23376 13.4579C8.62395 13.6667 9.09741 13.6439 9.46563 13.3984L13.0656 10.9984C13.3995 10.7758 13.6 10.4011 13.6 9.99991C13.6 9.59868 13.3995 9.224 13.0656 9.00144L9.46563 6.60144Z" fill="#06B6D4"/>
</svg>
