<svg width="24" height="24" viewBox="0 0 24 24" fill="none" xmlns="http://www.w3.org/2000/svg">
<path d="M18 22H6C5.46957 22 4.96086 21.7893 4.58579 21.4142C4.21071 21.0391 4 20.5304 4 20V3.99999C4 3.46956 4.21071 2.96085 4.58579 2.58578C4.96086 2.21071 5.46957 1.99999 6 1.99999H13C13.009 1.99882 13.018 1.99882 13.027 1.99999H13.033C13.0424 2.00295 13.0522 2.00496 13.062 2.00599C13.15 2.01199 13.237 2.02899 13.321 2.05699H13.363C13.3815 2.06991 13.3988 2.08429 13.415 2.09999C13.5239 2.14844 13.6232 2.2162 13.708 2.29999L19.708 8.29999C19.7918 8.38478 19.8596 8.48405 19.908 8.593C19.9167 8.61462 19.9244 8.63664 19.931 8.659L19.941 8.687C19.969 8.77 19.985 8.85699 19.99 8.94499C19.9909 8.95496 19.9932 8.96473 19.997 8.97399V8.97999C19.9986 8.98656 19.9996 8.99325 20 8.99999V20C20 20.5304 19.7893 21.0391 19.4142 21.4142C19.0391 21.7893 18.5304 22 18 22ZM15.542 14C15.3236 13.9888 15.106 14.0329 14.9091 14.1282C14.7123 14.2234 14.5427 14.3668 14.416 14.545C14.1329 15.0093 13.9989 15.5492 14.032 16.092V16.968C14.0038 17.5047 14.1509 18.0361 14.451 18.482C14.728 18.83 15.156 19.022 15.6 19C15.871 19.003 16.14 18.95 16.391 18.846L16.412 18.837C16.642 18.7353 16.8438 18.5791 17 18.382V16.373H15.531V17.115H16.131V18.008L16.055 18.068C15.933 18.1502 15.788 18.1912 15.641 18.185C15.5268 18.1929 15.4126 18.1691 15.3111 18.1162C15.2097 18.0632 15.1248 17.9832 15.066 17.885C14.931 17.5807 14.8716 17.2482 14.893 16.916V16.033C14.877 15.716 14.933 15.4 15.058 15.108C15.1052 15.0155 15.1783 14.9387 15.2682 14.8869C15.3582 14.8351 15.4613 14.8104 15.565 14.816C15.725 14.803 15.882 14.866 15.988 14.987C16.101 15.178 16.159 15.397 16.158 15.619H17C17.003 15.1759 16.8588 14.7443 16.59 14.392C16.454 14.2551 16.29 14.1492 16.1093 14.0816C15.9286 14.0139 15.7355 13.9861 15.543 14H15.542ZM11.284 15.746L12.543 18.933H13.4V14.067H12.545V17.262L11.282 14.067H10.42V18.933H11.282V15.746H11.284ZM7 14.067V18.933H7.862V17.222H8.437C8.825 17.242 9.203 17.091 9.469 16.808C9.731 16.491 9.864 16.088 9.842 15.678C9.86019 15.257 9.72559 14.8436 9.463 14.514C9.3401 14.3674 9.18526 14.2509 9.01036 14.1734C8.83546 14.0959 8.64515 14.0595 8.454 14.067H7ZM13 3.99999V8.99999H18L13 3.99999ZM8.454 16.4H7.862V14.885H8.462C8.53762 14.8862 8.6116 14.9073 8.67653 14.9461C8.74146 14.9848 8.79507 15.04 8.832 15.106C8.932 15.282 8.98 15.482 8.97 15.684C8.98212 15.8721 8.9349 16.0592 8.835 16.219C8.79124 16.2781 8.73358 16.3256 8.66714 16.3571C8.60069 16.3887 8.52749 16.4034 8.454 16.4Z" fill="#6B7280"/>
</svg>
