<svg width="20" height="21" viewBox="0 0 20 21" fill="none" xmlns="http://www.w3.org/2000/svg">
<path fill-rule="evenodd" clip-rule="evenodd" d="M18 10.2402C18 14.6585 14.4183 18.2402 10 18.2402C5.58172 18.2402 2 14.6585 2 10.2402C2 5.82196 5.58172 2.24023 10 2.24023C14.4183 2.24023 18 5.82196 18 10.2402ZM10 7.24023C9.63113 7.24023 9.3076 7.43945 9.13318 7.74096C8.85664 8.21902 8.24491 8.38238 7.76685 8.10584C7.28879 7.8293 7.12543 7.21757 7.40197 6.73951C7.91918 5.84542 8.88833 5.24023 10 5.24023C11.6569 5.24023 13 6.58338 13 8.24023C13 9.54645 12.1652 10.6577 11 11.0695V11.2402C11 11.7925 10.5523 12.2402 10 12.2402C9.44773 12.2402 9.00001 11.7925 9.00001 11.2402V10.2402C9.00001 9.68795 9.44773 9.24023 10 9.24023C10.5523 9.24023 11 8.79252 11 8.24023C11 7.68795 10.5523 7.24023 10 7.24023ZM10 15.2402C10.5523 15.2402 11 14.7925 11 14.2402C11 13.6879 10.5523 13.2402 10 13.2402C9.44772 13.2402 9 13.6879 9 14.2402C9 14.7925 9.44772 15.2402 10 15.2402Z" fill="#4B5563"/>
</svg>
