<svg width="16" height="14" viewBox="0 0 16 14" fill="none" xmlns="http://www.w3.org/2000/svg">
<path fill-rule="evenodd" clip-rule="evenodd" d="M5.29982 1.12367C6.13472 0.785713 7.04666 0.600006 7.99999 0.600006C11.9764 0.600006 15.2 3.82356 15.2 7.80001C15.2 8.24183 14.8418 8.60001 14.4 8.60001C13.9582 8.60001 13.6 8.24183 13.6 7.80001C13.6 4.70721 11.0928 2.20001 7.99999 2.20001C7.25589 2.20001 6.54756 2.34471 5.90017 2.60677C5.49062 2.77255 5.02423 2.57494 4.85845 2.16539C4.69267 1.75584 4.89028 1.28945 5.29982 1.12367ZM3.72938 2.9669C4.06064 3.25927 4.09216 3.76482 3.79979 4.09607C2.92805 5.08374 2.4 6.37923 2.4 7.80001C2.4 8.24183 2.04183 8.60001 1.6 8.60001C1.15817 8.60001 0.799999 8.24183 0.799999 7.80001C0.799999 5.97455 1.48038 4.30606 2.60021 3.0373C2.89258 2.70604 3.39813 2.67452 3.72938 2.9669Z" fill="white"/>
<path fill-rule="evenodd" clip-rule="evenodd" d="M4 7.80001C4 5.59087 5.79086 3.80001 7.99999 3.80001C10.2091 3.80001 12 5.59087 12 7.80001C12 8.24183 11.6418 8.60001 11.2 8.60001C10.7582 8.60001 10.4 8.24183 10.4 7.80001C10.4 6.47452 9.32548 5.40001 7.99999 5.40001C6.67451 5.40001 5.6 6.47452 5.6 7.80001C5.6 9.14173 5.32428 10.4211 4.82565 11.583C4.6514 11.989 4.18101 12.1769 3.77499 12.0027C3.36897 11.8284 3.18108 11.358 3.35533 10.952C3.76998 9.98582 4 8.92081 4 7.80001ZM11.1369 9.40988C11.5733 9.4791 11.8709 9.88896 11.8017 10.3253C11.6964 10.9893 11.5502 11.6399 11.3658 12.2742C11.2425 12.6985 10.7985 12.9424 10.3743 12.8191C9.95001 12.6958 9.70606 12.2518 9.8294 11.8276C9.99521 11.2572 10.1267 10.6721 10.2215 10.0747C10.2907 9.63831 10.7005 9.34067 11.1369 9.40988Z" fill="white"/>
<path fill-rule="evenodd" clip-rule="evenodd" d="M7.99999 7.00001C8.44182 7.00001 8.79999 7.35818 8.79999 7.80001C8.79999 9.58904 8.4325 11.2943 7.76811 12.8428C7.5939 13.2489 7.12352 13.4368 6.71749 13.2626C6.31146 13.0884 6.12352 12.618 6.29773 12.212C6.87817 10.8591 7.19999 9.36818 7.19999 7.80001C7.19999 7.35818 7.55817 7.00001 7.99999 7.00001Z" fill="white"/>
</svg>
