<svg width="20" height="20" viewBox="0 0 20 20" fill="none" xmlns="http://www.w3.org/2000/svg">
<path d="M7.49984 4.16667C7.49984 3.24619 8.24603 2.5 9.1665 2.5H10.8332C11.7536 2.5 12.4998 3.24619 12.4998 4.16667C12.4998 5.08714 11.7536 5.83333 10.8332 5.83333H9.1665C8.24603 5.83333 7.49984 5.08714 7.49984 4.16667Z" fill="white"/>
<path d="M7.49984 4.16667H5.83317C4.9127 4.16667 4.1665 4.91286 4.1665 5.83333V15.8333C4.1665 16.7538 4.9127 17.5 5.83317 17.5H14.1665C15.087 17.5 15.8332 16.7538 15.8332 15.8333V5.83333C15.8332 4.91286 15.087 4.16667 14.1665 4.16667H12.4998M7.49984 4.16667C7.49984 5.08714 8.24603 5.83333 9.1665 5.83333H10.8332C11.7536 5.83333 12.4998 5.08714 12.4998 4.16667M7.49984 4.16667C7.49984 3.24619 8.24603 2.5 9.1665 2.5H10.8332C11.7536 2.5 12.4998 3.24619 12.4998 4.16667M9.99984 10H12.4998M9.99984 13.3333H12.4998M7.49984 10H7.50817M7.49984 13.3333H7.50817" stroke="#6B7280" stroke-width="2" stroke-linecap="round"/>
</svg>
