<svg width="14" height="14" viewBox="0 0 14 14" fill="none" xmlns="http://www.w3.org/2000/svg">
<path d="M2 0C1.44772 0 1 0.447715 1 1C1 1.55228 1.44772 2 2 2C7.52285 2 12 6.47715 12 12C12 12.5523 12.4477 13 13 13C13.5523 13 14 12.5523 14 12C14 5.37258 8.62742 0 2 0Z" fill="white"/>
<path d="M1 6C1 5.44772 1.44772 5 2 5C5.86599 5 9 8.13401 9 12C9 12.5523 8.55228 13 8 13C7.44772 13 7 12.5523 7 12C7 9.23858 4.76142 7 2 7C1.44772 7 1 6.55228 1 6Z" fill="white"/>
<path d="M0 12C0 10.8954 0.89543 10 2 10C3.10457 10 4 10.8954 4 12C4 13.1046 3.10457 14 2 14C0.89543 14 0 13.1046 0 12Z" fill="white"/>
</svg>
