<svg width="12" height="14" viewBox="0 0 12 14" fill="none" xmlns="http://www.w3.org/2000/svg">
<path fill-rule="evenodd" clip-rule="evenodd" d="M1.9999 0.600098C1.11625 0.600098 0.399902 1.31644 0.399902 2.2001V13.4001L3.1999 11.8001L5.9999 13.4001L8.7999 11.8001L11.5999 13.4001V2.2001C11.5999 1.31644 10.8836 0.600098 9.9999 0.600098H1.9999ZM5.76559 3.56578C6.07801 3.25336 6.07801 2.74683 5.76559 2.43441C5.45317 2.12199 4.94664 2.12199 4.63422 2.43441L2.23422 4.83441C1.9218 5.14683 1.9218 5.65336 2.23422 5.96578L4.63422 8.36578C4.94664 8.6782 5.45317 8.6782 5.76559 8.36578C6.07801 8.05336 6.07801 7.54683 5.76559 7.23441L4.73127 6.2001H5.9999C7.32539 6.2001 8.3999 7.27461 8.3999 8.6001V9.4001C8.3999 9.84193 8.75808 10.2001 9.1999 10.2001C9.64173 10.2001 9.9999 9.84193 9.9999 9.4001V8.6001C9.9999 6.39096 8.20904 4.6001 5.9999 4.6001H4.73127L5.76559 3.56578Z" fill="#6B7280"/>
</svg>
