<svg width="19" height="12" viewBox="0 0 19 12" fill="none" xmlns="http://www.w3.org/2000/svg">
<path d="M8.13428 11.7985C8.5025 12.0439 8.97596 12.0668 9.36615 11.858C9.75634 11.6492 9.99992 11.2426 9.99992 10.8L9.99992 7.44222L16.5343 11.7985C16.9025 12.0439 17.376 12.0668 17.7661 11.858C18.1563 11.6492 18.3999 11.2426 18.3999 10.8V1.2C18.3999 0.757447 18.1563 0.350815 17.7661 0.141992C17.376 -0.0668304 16.9025 -0.0439434 16.5343 0.201541L9.99992 4.55778V1.2C9.99992 0.757448 9.75634 0.350815 9.36615 0.141993C8.97596 -0.06683 8.50251 -0.043943 8.13428 0.201542L0.934277 5.00154C0.600439 5.2241 0.399918 5.59878 0.399918 6C0.399918 6.40123 0.600439 6.7759 0.934277 6.99846L8.13428 11.7985Z" fill="#06B6D4"/>
</svg>
