<svg width="15" height="18" viewBox="0 0 15 18" fill="none" xmlns="http://www.w3.org/2000/svg">
<path d="M5.83317 16.5H11.6665C12.587 16.5 13.3332 15.7538 13.3332 14.8333V6.84518C13.3332 6.62416 13.2454 6.4122 13.0891 6.25592L8.57725 1.74408C8.42097 1.5878 8.20901 1.5 7.98799 1.5H3.33317C2.4127 1.5 1.6665 2.24619 1.6665 3.16667V12.3333M1.6665 16.5L5.73207 12.4344M5.73207 12.4344C6.18448 12.8868 6.80948 13.1667 7.49984 13.1667C8.88055 13.1667 9.99984 12.0474 9.99984 10.6667C9.99984 9.28595 8.88055 8.16667 7.49984 8.16667C6.11913 8.16667 4.99984 9.28595 4.99984 10.6667C4.99984 11.357 5.27966 11.982 5.73207 12.4344Z" stroke="#6B7280" stroke-width="2" stroke-linecap="round"/>
</svg>
