<svg width="16" height="16" viewBox="0 0 16 16" fill="none" xmlns="http://www.w3.org/2000/svg">
<path fill-rule="evenodd" clip-rule="evenodd" d="M1.73298 3.99922C4.13959 3.96657 6.33232 3.04836 8.00009 1.55566C9.66787 3.04836 11.8606 3.96657 14.2672 3.99922C14.3546 4.51984 14.4001 5.05467 14.4001 5.60012C14.4001 9.78001 11.7287 13.336 8.00009 14.6538C4.27148 13.336 1.6001 9.78001 1.6001 5.60012C1.6001 5.05467 1.64559 4.51984 1.73298 3.99922ZM11.1072 7.1072C11.4977 6.71668 11.4977 6.08352 11.1072 5.69299C10.7167 5.30247 10.0835 5.30247 9.69298 5.69299L7.20009 8.18588L6.3072 7.29299C5.91668 6.90247 5.28351 6.90247 4.89299 7.29299C4.50246 7.68351 4.50246 8.31668 4.89299 8.7072L6.49299 10.3072C6.68052 10.4947 6.93488 10.6001 7.20009 10.6001C7.46531 10.6001 7.71966 10.4947 7.9072 10.3072L11.1072 7.1072Z" fill="white"/>
</svg>
