<svg width="15" height="15" viewBox="0 0 15 15" fill="none" xmlns="http://www.w3.org/2000/svg">
<path d="M6.54896 2.42664C6.84833 1.50537 8.15167 1.50538 8.45105 2.42664L9.18402 4.6822C9.3179 5.09419 9.70183 5.37313 10.135 5.37315L12.5067 5.37324C13.4754 5.37328 13.8781 6.61283 13.0945 7.18223L11.1758 8.57634C10.8253 8.83098 10.6787 9.28231 10.8126 9.69431L11.5454 11.9499C11.8447 12.8712 10.7902 13.6373 10.0065 13.068L8.08775 11.674C7.73728 11.4194 7.26272 11.4194 6.91225 11.674L4.99347 13.068C4.20977 13.6373 3.15534 12.8712 3.45465 11.9499L4.18745 9.69431C4.3213 9.28231 4.17465 8.83098 3.8242 8.57634L1.90553 7.18223C1.12187 6.61283 1.52462 5.37328 2.49331 5.37324L4.86498 5.37315C5.29818 5.37313 5.6821 5.09419 5.81598 4.6822L6.54896 2.42664Z" stroke="#9CA3AF" stroke-width="2"/>
</svg>
