<svg width="13" height="13" viewBox="0 0 13 13" fill="none" xmlns="http://www.w3.org/2000/svg">
<path d="M6.97553 1.58156L7.70833 3.83688C7.90914 4.45492 8.48507 4.87336 9.13491 4.87336L11.5063 4.87336C11.9907 4.87336 12.192 5.49316 11.8002 5.77786L9.8817 7.17173C9.35597 7.5537 9.13598 8.23075 9.33679 8.84878L10.0696 11.1041C10.2193 11.5648 9.69203 11.9478 9.30017 11.6631L7.38168 10.2693C6.85595 9.88729 6.14405 9.88729 5.61832 10.2693L3.69983 11.6631C3.30797 11.9478 2.78073 11.5648 2.93041 11.1041L3.66321 8.84878C3.86402 8.23075 3.64403 7.5537 3.1183 7.17173L1.19981 5.77786C0.807953 5.49316 1.00934 4.87336 1.4937 4.87336L3.86509 4.87336C4.51493 4.87336 5.09086 4.45491 5.29167 3.83688L6.02447 1.58156C6.17415 1.1209 6.82585 1.1209 6.97553 1.58156Z" fill="#22D3EE" stroke="#22D3EE"/>
</svg>
