<svg width="17" height="18" viewBox="0 0 17 18" fill="none" xmlns="http://www.w3.org/2000/svg">
<g clip-path="url(#clip0_468_30216)">
<path d="M7.54896 3.42664C7.84833 2.50537 9.15167 2.50538 9.45105 3.42664L10.184 5.6822C10.3179 6.09419 10.7018 6.37313 11.135 6.37315L13.5067 6.37324C14.4754 6.37328 14.8781 7.61283 14.0945 8.18223L12.1758 9.57634C11.8253 9.83098 11.6787 10.2823 11.8126 10.6943L12.5454 12.9499C12.8447 13.8712 11.7902 14.6373 11.0065 14.068L9.08775 12.674C8.73728 12.4194 8.26272 12.4194 7.91225 12.674L5.99347 14.068C5.20977 14.6373 4.15534 13.8712 4.45465 12.9499L5.18745 10.6943C5.3213 10.2823 5.17465 9.83098 4.8242 9.57634L2.90553 8.18223C2.12187 7.61283 2.52462 6.37328 3.49331 6.37324L5.86498 6.37315C6.29818 6.37313 6.6821 6.09419 6.81598 5.6822L7.54896 3.42664Z" stroke="#9CA3AF" stroke-width="2"/>
</g>
<defs>
<clipPath id="clip0_468_30216">
<rect width="17" height="17" fill="white" transform="translate(0 0.5)"/>
</clipPath>
</defs>
</svg>
