<svg width="16" height="12" viewBox="0 0 16 12" fill="none" xmlns="http://www.w3.org/2000/svg">
<path d="M1.25 3.40137C1.25 2.57294 1.92157 1.90137 2.75 1.90137H13.25C14.0784 1.90137 14.75 2.57294 14.75 3.40137V9.40137C14.75 10.2298 14.0784 10.9014 13.25 10.9014H2.75C1.92157 10.9014 1.25 10.2298 1.25 9.40137V3.40137Z" fill="white"/>
<path d="M1.25 4.90137H14.75M1.25 7.90137H14.75M8 4.90137V10.9014M2.75 10.9014H13.25C14.0784 10.9014 14.75 10.2298 14.75 9.40137V3.40137C14.75 2.57294 14.0784 1.90137 13.25 1.90137H2.75C1.92157 1.90137 1.25 2.57294 1.25 3.40137V9.40137C1.25 10.2298 1.92157 10.9014 2.75 10.9014Z" stroke="#6B7280" stroke-width="2"/>
</svg>
