<svg width="18" height="16" viewBox="0 0 18 16" fill="none" xmlns="http://www.w3.org/2000/svg">
<path fill-rule="evenodd" clip-rule="evenodd" d="M5.62478 0.654579C6.6684 0.232134 7.80833 0 9 0C13.9706 0 18 4.02944 18 9C18 9.55229 17.5523 10 17 10C16.4477 10 16 9.55229 16 9C16 5.13401 12.866 2 9 2C8.06987 2 7.18446 2.18088 6.37522 2.50845C5.86328 2.71568 5.28029 2.46867 5.07306 1.95673C4.86584 1.4448 5.11285 0.861804 5.62478 0.654579ZM3.66173 2.95861C4.0758 3.32408 4.1152 3.95602 3.74974 4.37008C2.66007 5.60467 2 7.22404 2 9C2 9.55229 1.55228 10 1 10C0.447715 10 0 9.55229 0 9C0 6.71818 0.850477 4.63256 2.25026 3.04662C2.61573 2.63255 3.24766 2.59315 3.66173 2.95861Z" fill="#9CA3AF"/>
<path fill-rule="evenodd" clip-rule="evenodd" d="M4 9C4 6.23858 6.23857 4 9 4C11.7614 4 14 6.23858 14 9C14 9.55228 13.5523 10 13 10C12.4477 10 12 9.55228 12 9C12 7.34315 10.6569 6 9 6C7.34315 6 6 7.34315 6 9C6 10.6772 5.65535 12.2764 5.03206 13.7288C4.81426 14.2363 4.22626 14.4712 3.71874 14.2533C3.21122 14.0355 2.97636 13.4475 3.19416 12.94C3.71247 11.7323 4 10.401 4 9ZM12.9212 11.0123C13.4666 11.0989 13.8387 11.6112 13.7521 12.1567C13.6205 12.9867 13.4378 13.7998 13.2072 14.5928C13.0531 15.1231 12.4982 15.428 11.9679 15.2739C11.4375 15.1197 11.1326 14.5648 11.2868 14.0345C11.494 13.3215 11.6584 12.5901 11.7768 11.8433C11.8634 11.2979 12.3757 10.9258 12.9212 11.0123Z" fill="#9CA3AF"/>
<path fill-rule="evenodd" clip-rule="evenodd" d="M9 8C9.55228 8 10 8.44771 10 9C10 11.2363 9.54063 13.3679 8.71014 15.3036C8.49239 15.8111 7.90441 16.046 7.39687 15.8283C6.88933 15.6105 6.65441 15.0225 6.87217 14.515C7.59772 12.8239 8 10.9602 8 9C8 8.44771 8.44771 8 9 8Z" fill="#9CA3AF"/>
</svg>
