<svg width="20" height="21" viewBox="0 0 20 21" fill="none" xmlns="http://www.w3.org/2000/svg">
<path d="M15.8335 6.07406L15.1107 16.1928C15.0484 17.065 14.3227 17.7407 13.4483 17.7407H6.55203C5.67763 17.7407 4.9519 17.065 4.8896 16.1928L4.16683 6.07406H7.50016V3.57406C7.50016 3.11382 7.87326 2.74072 8.3335 2.74072H11.6668C12.1271 2.74072 12.5002 3.11382 12.5002 3.57406V6.07406H15.8335Z" fill="white"/>
<path d="M15.8335 6.07406L15.1107 16.1928C15.0484 17.065 14.3227 17.7407 13.4483 17.7407H6.55203C5.67763 17.7407 4.9519 17.065 4.8896 16.1928L4.16683 6.07406M8.3335 9.40739V14.4074M11.6668 9.40739V14.4074M12.5002 6.07406V3.57406C12.5002 3.11382 12.1271 2.74072 11.6668 2.74072H8.3335C7.87326 2.74072 7.50016 3.11382 7.50016 3.57406V6.07406M3.3335 6.07406H16.6668" stroke="#6B7280" stroke-width="2" stroke-linecap="round" stroke-linejoin="round"/>
</svg>
