<svg width="20" height="21" viewBox="0 0 20 21" fill="none" xmlns="http://www.w3.org/2000/svg">
<path fill-rule="evenodd" clip-rule="evenodd" d="M3 17.2407C3 16.6884 3.44772 16.2407 4 16.2407H16C16.5523 16.2407 17 16.6884 17 17.2407C17 17.793 16.5523 18.2407 16 18.2407H4C3.44772 18.2407 3 17.793 3 17.2407ZM6.29289 6.94783C5.90237 6.55731 5.90237 5.92414 6.29289 5.53362L9.29289 2.53362C9.48043 2.34608 9.73478 2.24072 10 2.24072C10.2652 2.24072 10.5196 2.34608 10.7071 2.53362L13.7071 5.53362C14.0976 5.92414 14.0976 6.55731 13.7071 6.94783C13.3166 7.33835 12.6834 7.33835 12.2929 6.94783L11 5.65494L11 13.2407C11 13.793 10.5523 14.2407 10 14.2407C9.44771 14.2407 9 13.793 9 13.2407L9 5.65494L7.70711 6.94783C7.31658 7.33835 6.68342 7.33835 6.29289 6.94783Z" fill="#9CA3AF"/>
</svg>
