<svg width="17" height="16" viewBox="0 0 17 16" fill="none" xmlns="http://www.w3.org/2000/svg">
<path fill-rule="evenodd" clip-rule="evenodd" d="M4.76701 1.45496C5.41008 1.40364 6.02057 1.15077 6.51158 0.732335C7.65738 -0.244112 9.34262 -0.244112 10.4884 0.732335C10.9794 1.15077 11.5899 1.40364 12.233 1.45496C13.7336 1.57471 14.9253 2.76636 15.045 4.26701C15.0964 4.91008 15.3492 5.52057 15.7677 6.01158C16.7441 7.15738 16.7441 8.84262 15.7677 9.98842C15.3492 10.4794 15.0964 11.0899 15.045 11.733C14.9253 13.2336 13.7336 14.4253 12.233 14.545C11.5899 14.5964 10.9794 14.8492 10.4884 15.2677C9.34262 16.2441 7.65738 16.2441 6.51158 15.2677C6.02057 14.8492 5.41008 14.5964 4.76701 14.545C3.26636 14.4253 2.07471 13.2336 1.95496 11.733C1.90364 11.0899 1.65077 10.4794 1.23234 9.98842C0.255888 8.84262 0.255888 7.15738 1.23234 6.01158C1.65077 5.52057 1.90364 4.91008 1.95496 4.26701C2.07471 2.76636 3.26636 1.57471 4.76701 1.45496ZM12.2071 6.70711C12.5976 6.31658 12.5976 5.68342 12.2071 5.29289C11.8166 4.90237 11.1834 4.90237 10.7929 5.29289L7.5 8.58579L6.20711 7.29289C5.81658 6.90237 5.18342 6.90237 4.79289 7.29289C4.40237 7.68342 4.40237 8.31658 4.79289 8.70711L6.79289 10.7071C7.18342 11.0976 7.81658 11.0976 8.20711 10.7071L12.2071 6.70711Z" fill="white"/>
</svg>
