<svg width="12" height="14" viewBox="0 0 12 14" fill="none" xmlns="http://www.w3.org/2000/svg">
<path fill-rule="evenodd" clip-rule="evenodd" d="M2.00002 0.600006C1.11637 0.600006 0.400024 1.31635 0.400024 2.20001V13.4L3.20002 11.8L6.00002 13.4L8.80002 11.8L11.6 13.4V2.20001C11.6 1.31635 10.8837 0.600006 10 0.600006H2.00002ZM5.76571 3.56569C6.07813 3.25327 6.07813 2.74674 5.76571 2.43432C5.45329 2.1219 4.94676 2.1219 4.63434 2.43432L2.23434 4.83432C1.92192 5.14674 1.92192 5.65327 2.23434 5.96569L4.63434 8.36569C4.94676 8.67811 5.45329 8.67811 5.76571 8.36569C6.07813 8.05327 6.07813 7.54674 5.76571 7.23432L4.7314 6.20001H6.00002C7.32551 6.20001 8.40003 7.27452 8.40003 8.60001V9.40001C8.40003 9.84183 8.7582 10.2 9.20002 10.2C9.64185 10.2 10 9.84183 10 9.40001V8.60001C10 6.39087 8.20916 4.60001 6.00002 4.60001H4.7314L5.76571 3.56569Z" fill="white"/>
</svg>
